<svg width="24" height="24" viewBox="0 0 24 24" fill="none" xmlns="http://www.w3.org/2000/svg">
<mask id="path-1-inside-1_18_82" fill="white">
<path d="M15.0741 15.2786C15.3853 15.3899 15.6965 15.5013 16.06 15.6313C16.0238 15.0503 15.9972 14.4917 15.9516 13.9353C15.9182 13.5272 15.8321 13.1229 15.8223 12.7151C15.8155 12.4321 15.8789 12.1394 15.9443 11.8624C16.3764 10.033 17.1067 8.37401 17.9751 6.8259C18.3309 6.95216 18.693 7.07373 19.0513 7.20922C19.9079 7.53305 20.4818 8.30359 21.0559 9.06603C21.3127 9.40705 21.5395 9.78022 21.7858 10.1329C22.4647 11.1048 22.631 12.3431 22.9917 13.479C23.2006 14.1368 23.3666 14.814 23.5551 15.4812C23.6907 15.961 23.8453 16.4338 23.9668 16.9186C24.1147 17.5083 23.7541 18.4511 23.1696 18.7377C22.1283 19.2483 21.3028 20.1065 20.443 20.9256C20.2798 21.081 20.0327 21.1501 19.8174 21.1754C19.583 21.203 19.447 21.0142 19.5399 20.7262C19.8563 19.7458 20.0332 18.7353 20.0667 17.6841C20.0757 17.4037 20.2002 17.2951 20.4597 17.3943C20.9696 17.5894 21.4906 17.7563 22.034 17.5985C22.1983 17.5508 22.3569 17.475 22.518 17.4121C22.5136 17.3617 22.5091 17.3114 22.5047 17.261C22.1749 17.2158 21.8444 17.1771 21.5155 17.1237C21.1499 17.0643 20.7841 17.0017 20.4226 16.9154C20.3546 16.8991 20.2458 16.7467 20.2582 16.6884C20.3491 16.2615 20.4507 15.8354 20.5845 15.4257C20.6228 15.3086 20.7737 15.1813 20.8808 15.1704C21.3969 15.1181 21.7455 14.7408 22.0843 14.3229C21.8196 14.4441 21.5604 14.5879 21.2891 14.6816C20.853 14.8324 20.8111 14.709 20.8298 14.1921C20.85 13.6303 21.2259 13.3806 21.4313 12.9868C21.1036 12.7482 20.8711 12.9318 20.744 13.4639C20.4698 14.6111 20.19 15.7564 19.9082 16.9009C19.5545 18.3376 19.183 19.7682 18.849 21.2114C18.7544 21.6203 18.7944 22.1186 18.3193 22.1667C17.9928 22.1998 17.6505 22.172 17.3299 22.0895C16.7268 21.9342 16.1343 21.7197 15.4621 21.5058C15.5379 21.6631 15.5706 21.8373 15.6533 21.8843C16.0458 22.1069 16.4481 22.3074 16.8549 22.4902C17.0808 22.5918 17.4035 22.441 17.5408 22.948C17.1787 22.9696 16.8532 23.0181 16.53 23.0022C15.8403 22.9683 15.1521 22.8892 14.4624 22.8532C14.2046 22.8397 14.0985 22.7405 14.1038 22.4166C14.1203 21.4098 14.1108 20.4023 14.1324 19.3958C14.1343 19.3071 14.2795 19.1807 14.3765 19.1461C14.5666 19.0784 14.7696 19.0631 15.0035 18.9117C14.606 18.6404 14.2086 18.3692 13.8394 18.1172C14.0568 17.1167 14.2697 16.1372 14.4992 15.0812C14.5765 15.1105 14.7094 15.1609 14.8615 15.275C14.9074 15.5332 14.9266 15.7296 14.962 15.9216C15.0566 16.4335 14.9471 17.0052 15.2773 17.4547C15.3864 16.8692 15.3961 16.2966 15.1904 15.7347C15.1375 15.5901 15.1121 15.431 15.0741 15.2786ZM16.0774 17.4494C16.0519 18.1381 16.0994 18.8518 15.4877 19.2851C15.4163 19.3356 15.3911 19.703 15.4561 19.7719C15.8917 20.2335 16.3523 20.6625 16.8181 21.0806C16.9104 21.1634 17.0611 21.1526 17.1848 21.185C17.2004 21.1447 17.216 21.1045 17.2316 21.0643C17.106 20.9546 16.9732 20.8548 16.8561 20.7332C16.5319 20.3968 16.2052 20.0624 15.9019 19.7001C15.8423 19.6289 15.8836 19.4363 15.8784 19.2997C15.9768 19.325 16.0979 19.315 16.1698 19.3815C16.4759 19.6653 16.7674 19.9716 17.0733 20.2789C17.206 19.9012 16.9945 19.2967 16.6502 19.1839C16.2746 19.061 16.2776 18.783 16.3335 18.4528C16.445 17.7934 16.59 17.1417 16.6868 16.4796C16.7312 16.1754 16.6943 15.8541 16.6943 15.5406C16.6356 15.531 16.5769 15.5214 16.5182 15.5118C16.3772 16.1341 16.2362 16.7564 16.0774 17.4494ZM19.7311 10.5777C19.919 10.7933 20.1068 11.0088 20.3381 11.2742C20.2343 10.4327 19.6121 10.0145 18.6849 10.0786C18.1739 10.114 17.5378 10.6107 17.5274 10.9999C17.7612 10.8721 17.9895 10.7478 18.2174 10.6227C18.6967 10.3595 19.182 10.2433 19.7311 10.5777Z"/>
<path d="M9.32776 3.25507C9.5116 3.41786 9.64033 3.41552 9.68684 3.1569C9.91981 1.86135 10.717 1.10943 11.5636 0.447719C12.4417 -0.238593 13.9283 -0.188887 14.6532 0.968541C14.7085 1.05682 14.8976 1.08282 15.0085 1.05273C15.5747 0.89908 16.1356 0.717484 16.72 0.610746C16.6673 1.05034 16.365 1.0671 16.1549 1.21975C15.9612 1.36054 15.7339 1.45791 15.5765 1.64221C15.3542 1.90261 15.2309 2.14963 15.4942 2.58425C15.733 2.97827 15.7517 3.55916 15.8872 4.0498C16.0059 4.47957 16.1563 4.89659 16.2829 5.32344C16.3126 5.42362 16.3026 5.54074 16.3109 5.65006C16.2135 5.62325 16.0837 5.63533 16.0239 5.56348C15.5313 4.97155 15.3525 4.21319 15.2706 3.41046C15.263 3.33577 15.3 3.24946 15.2816 3.18233C15.2176 2.95002 15.1383 2.7238 15.0648 2.49527C14.9403 2.65274 14.8073 2.802 14.6931 2.96966C14.5329 3.20497 14.3865 3.45396 14.2034 3.74634C14.307 3.79441 14.3903 3.84803 14.4791 3.87183C15.1417 4.04947 15.4306 4.80911 15.1079 5.52323C15.0353 5.68384 14.999 5.87124 14.9134 6.01915C14.8504 6.12803 14.7343 6.19268 14.6419 6.27703C14.5741 6.14066 14.4502 6.00321 14.452 5.86819C14.4545 5.68115 14.5514 5.49589 14.6081 5.30995C14.6513 5.16813 14.7218 5.02935 14.7327 4.8841C14.7557 4.57683 14.7264 4.25985 14.3868 4.25412C14.0857 4.24904 13.9737 4.50677 13.9547 4.8336C13.9497 4.91818 13.9539 5.00352 13.8738 5.13167C13.7789 4.97247 13.6839 4.81327 13.5711 4.62418C13.3391 4.88553 13.084 5.1336 12.8785 5.4311C12.8254 5.50807 12.8852 5.78648 12.9659 5.8934C13.6657 6.82132 14.3804 7.73321 15.0948 8.64528C15.3083 8.91789 15.4515 8.76646 15.491 8.48774C15.6544 7.3346 16.1998 6.41426 16.7195 5.47282C16.8745 5.19205 16.9648 5.18368 17.1298 5.46631C17.3554 5.85269 17.6207 6.20573 17.845 6.53774C17.7128 6.69339 17.5624 6.82796 17.4568 7.00172C16.7174 8.21782 16.3964 9.67188 15.8922 11.0216C15.7535 11.3927 15.6846 11.801 15.5763 12.1893C15.5546 12.2671 15.4994 12.3316 15.4229 12.4676C14.9782 11.6003 15.2659 10.6695 15.0678 9.74529C14.8902 9.85522 14.7164 9.95397 14.5497 10.0677C14.1852 10.3163 13.8313 10.5885 13.4599 10.8206C13.1523 11.0128 12.8999 10.8725 12.6793 10.5708C11.4986 8.95539 10.3122 7.34603 9.12696 5.7355C9.09384 5.6905 9.04358 5.66244 9.01405 5.61504C8.83618 5.32952 8.48637 5.0025 8.52284 4.76078C8.6012 4.24139 8.87486 3.76267 9.0829 3.27613C9.10201 3.23144 9.22407 3.25014 9.32776 3.25507ZM13.674 10.0787C14.0218 9.79783 14.3778 9.52987 14.7096 9.224C14.768 9.17013 14.776 8.90504 14.7203 8.82715C14.3976 8.37614 14.0349 7.9664 13.7116 7.51594C12.8912 6.37264 11.9492 5.3485 11.3172 4.01875C11.1821 3.73434 11.0428 3.73023 10.8372 3.96681C10.6125 4.22529 10.3512 4.44592 10.0849 4.64208C9.80143 4.85089 9.49341 5.01171 9.32643 5.11381C9.46756 5.35632 9.57225 5.64444 9.75181 5.82583C10.5034 6.58509 10.2394 6.75307 11.0627 5.91534C11.4363 6.33929 11.8242 6.75244 12.177 7.20505C12.2395 7.2853 12.2069 7.58967 12.1287 7.68593C11.9696 7.88187 11.7495 8.00645 11.5293 8.18033C11.9381 8.74247 12.3581 9.24061 12.6956 9.80928C12.9641 10.2616 13.2268 10.3784 13.674 10.0787ZM9.62722 4.34896C9.58464 4.13393 9.54207 3.9189 9.4995 3.70387C9.44458 3.70128 9.38966 3.69869 9.33474 3.6961C9.22359 4.03573 9.11243 4.37536 9.00128 4.71498C9.05472 4.76367 9.10816 4.81235 9.1616 4.86103C9.3089 4.71194 9.4562 4.56285 9.62722 4.34896Z"/>
<path d="M9.57266 21.735C9.64835 22.0989 9.53204 22.2503 9.24049 22.108C8.92203 21.9525 8.61229 21.7653 8.31397 21.5601C8.23056 21.5028 8.20089 21.3329 8.13187 21.1826C7.89841 21.1508 7.57907 21.2343 7.48808 20.7756C7.48169 20.7433 7.28129 20.71 7.21481 20.7604C6.64617 21.1909 6.0727 21.6162 5.53124 22.0931C5.16314 22.4173 4.82505 22.4778 4.53363 22.1061C4.66168 22.0223 4.78229 21.9513 4.89634 21.8676C5.98321 21.0691 7.07167 20.2737 8.15203 19.4628C8.30985 19.3443 8.42153 19.1406 8.56493 18.9906C8.98384 18.5524 9.42486 18.2216 10.0313 18.2738C10.2187 18.29 10.4165 17.9983 10.6229 17.8815C10.7314 17.8201 10.8687 17.8321 10.993 17.8109C10.9431 17.9485 10.9238 18.1328 10.8373 18.2142C10.633 18.4064 10.3968 18.5496 10.1735 18.7125C10.1754 18.7575 10.1773 18.8024 10.1792 18.8473C10.3267 18.8852 10.4732 18.9476 10.622 18.957C11.5871 19.0178 12.5524 19.0765 13.5183 19.1137C13.7624 19.1231 13.8222 19.2381 13.8163 19.505C13.7955 20.4586 13.8375 21.4189 13.7554 22.3641C13.7098 22.8887 13.4653 23.3884 13.28 23.9999C12.5217 23.3304 11.8214 22.7294 11.1432 22.0945C11.0447 22.0023 11.0515 21.7482 10.9785 21.4365C10.8909 21.4551 10.7079 21.4823 10.5299 21.5343C10.2643 21.6118 10.0022 21.7068 9.71483 21.7358C9.48881 21.4207 9.28664 21.1642 9.07316 20.8933C9.24364 20.4109 9.05678 20.1629 8.37127 20.1124C8.62822 20.5684 8.86216 20.985 9.09855 21.3995C9.1108 21.4209 9.14548 21.4223 9.16718 21.438C9.30274 21.5362 9.43758 21.6358 9.57266 21.735Z"/>
<path d="M11.0122 16.6788C10.5176 16.8024 10.0433 16.9425 9.59958 17.0912C9.09103 17.2616 8.6736 17.3133 8.18906 17.1356C8.09686 17.1018 7.91092 17.2696 7.82635 17.399C7.18222 18.385 6.55389 19.3857 5.91629 20.3778C5.85104 20.4794 5.75719 20.5544 5.67661 20.6418C5.64489 20.6252 5.61316 20.6086 5.58144 20.592C5.59463 20.4777 5.57863 20.3411 5.62552 20.2524C6.09589 19.3623 6.58833 18.4889 7.05125 17.5934C7.56032 16.6086 8.1116 15.6426 8.51496 14.5966C8.75376 13.9772 9.11528 13.7226 9.57494 13.5273C9.90459 13.3873 10.2141 13.2418 10.5374 13.6605C10.8154 14.0205 11.1975 14.2668 11.5419 14.5488C11.6062 14.6014 11.7111 14.6049 11.795 14.597C12.1805 14.5606 12.5648 14.489 12.9506 14.4751C13.2562 14.464 13.5658 14.5002 13.8687 14.5545C13.9581 14.5706 14.1041 14.7246 14.1003 14.8072C14.044 16.0464 13.8006 17.2212 13.2023 18.2598C13.1743 18.3083 13.1447 18.3554 13.0864 18.452C12.398 17.8577 11.7211 17.2733 11.0122 16.6788ZM10.0292 15.7073C9.85316 15.5275 9.6968 15.2729 9.49367 15.1958C9.37157 15.1494 9.17655 15.3798 9.0143 15.4858C9.02847 15.5174 9.04263 15.549 9.0568 15.5807C9.27559 15.5673 9.49439 15.554 9.71318 15.5407C9.36989 15.9661 8.74378 16.0146 8.84669 16.863C9.26158 16.5402 9.6367 16.2519 10.0063 15.9539C10.035 15.9307 10.0253 15.839 10.0292 15.7073ZM11.3643 15.1145C11.1258 15.2321 11.0543 15.7828 11.2302 16.1477C11.4288 15.8901 11.4615 15.6987 11.3643 15.1145Z"/>
<path d="M3.2515 16.1007C3.07039 15.2434 2.8921 14.3852 2.70705 13.5291C2.6055 13.0592 2.47801 12.5969 2.3886 12.124C2.28782 11.5909 2.41487 11.4248 2.92068 11.3699C3.37155 14.4953 3.95014 17.586 4.77857 20.6066C4.73383 20.6358 4.68909 20.6649 4.64435 20.6941C4.58482 20.5867 4.50137 20.4885 4.46942 20.3704C4.09652 18.9913 3.73163 17.6091 3.36298 16.2283C3.35163 16.1858 3.32251 16.1502 3.27485 16.1043C3.24802 16.0973 3.2515 16.1007 3.2515 16.1007Z"/>
<path d="M4.13083 14.4697C4.03814 13.2855 3.93806 12.1419 3.88262 10.9953C3.84545 10.2265 3.87378 10.2246 4.45648 9.6467C4.49547 9.82557 4.55447 9.97199 4.55518 10.1188C4.56233 11.5917 4.55292 13.0647 4.56342 14.5375C4.568 15.1801 4.61014 15.8223 4.63047 16.4649C4.63793 16.7009 4.63167 16.9375 4.63167 17.1738C4.57717 17.1795 4.52267 17.1852 4.46817 17.1909C4.35959 16.2969 4.25101 15.403 4.13083 14.4697Z"/>
<path d="M2.24859 16.8207C2.49824 17.31 2.73045 17.7726 2.96266 18.2351C2.92791 18.269 2.89316 18.3028 2.8584 18.3367C2.75631 18.2068 2.64609 18.0848 2.55338 17.9459C1.70394 16.6733 0.850362 15.4044 0.0239626 14.1106C-0.0418509 14.0075 0.0386458 13.6784 0.135433 13.5381C0.292143 13.3109 0.700295 13.3593 0.813227 13.5985C1.14607 14.3035 1.46053 15.0211 1.7783 15.7362C1.9337 16.0859 2.08048 16.4412 2.24859 16.8207Z"/>
<path d="M8.3015 12.4503C7.68561 13.508 7.09084 14.5431 6.48658 15.5702C6.43503 15.6578 6.32029 15.6919 6.2349 15.7509C6.23443 15.6286 6.19564 15.4801 6.23934 15.388C6.756 14.2994 7.28797 13.2212 7.80916 12.1356C7.99978 11.7385 8.16986 11.3273 8.35552 10.9267C8.39628 10.8388 8.46347 10.7685 8.51922 10.689C8.87859 11.0889 8.91522 11.3538 8.68305 11.7757C8.5633 11.9934 8.44117 12.2091 8.3015 12.4503Z"/>
<path d="M3.76902 21.7533C3.05515 21.9337 2.37677 22.1658 1.68519 22.2645C1.15118 22.3407 0.670645 22.0185 0.213746 21.7168C0.219518 21.6613 0.225291 21.6057 0.231063 21.5502C1.49163 21.4992 2.7522 21.4481 4.01276 21.397C4.02729 21.4479 4.04181 21.4988 4.05633 21.5497C3.9705 21.6157 3.88467 21.6816 3.76902 21.7533Z"/>
<path d="M5.85001 12.7383C6.01805 11.8825 6.08544 11.0304 6.47704 10.1717C6.71716 10.6516 6.83583 11.0595 6.74386 11.4665C6.52478 12.4357 6.2582 13.3897 6.00347 14.347C5.96298 14.4992 5.88441 14.6367 5.7619 14.7693C5.53049 14.0892 5.81743 13.4383 5.85001 12.7383Z"/>
<path d="M2.73631 18.6425C2.95573 18.9612 3.15533 19.2572 3.35493 19.5532C3.33481 19.5875 3.31468 19.6218 3.29456 19.6562C2.27759 18.8092 1.26063 17.9622 0.243664 17.1152C0.245249 17.0842 0.246835 17.0533 0.24842 17.0223C0.391652 17.0223 0.540133 16.9925 0.677236 17.0273C1.39936 17.2105 2.08051 17.4844 2.49239 18.3088C2.55025 18.4246 2.64098 18.5168 2.73631 18.6425Z"/>
<path d="M7.33101 19.516C7.11981 19.7216 6.92688 19.9025 6.73394 20.0835C6.70149 20.0479 6.66903 20.0123 6.63658 19.9766C6.67827 19.8859 6.70303 19.7717 6.76426 19.7081C7.4271 19.0191 8.08001 18.3137 8.77287 17.6706C8.96414 17.493 9.2791 17.5074 9.5373 17.4337C9.55689 17.491 9.57648 17.5483 9.59607 17.6056C8.84715 18.2341 8.09822 18.8627 7.33101 19.516Z"/>
<path d="M9.59626 13.1089C9.82642 12.5041 10.0727 11.9283 10.3188 11.3531C10.7667 11.6198 10.7939 11.7475 10.527 12.1669C10.342 12.4574 10.1621 12.7527 9.97255 13.0389C9.87965 13.1792 9.78224 13.3683 9.59626 13.1089Z"/>
</mask>
<path d="M15.0741 15.2786C15.3853 15.3899 15.6965 15.5013 16.06 15.6313C16.0238 15.0503 15.9972 14.4917 15.9516 13.9353C15.9182 13.5272 15.8321 13.1229 15.8223 12.7151C15.8155 12.4321 15.8789 12.1394 15.9443 11.8624C16.3764 10.033 17.1067 8.37401 17.9751 6.8259C18.3309 6.95216 18.693 7.07373 19.0513 7.20922C19.9079 7.53305 20.4818 8.30359 21.0559 9.06603C21.3127 9.40705 21.5395 9.78022 21.7858 10.1329C22.4647 11.1048 22.631 12.3431 22.9917 13.479C23.2006 14.1368 23.3666 14.814 23.5551 15.4812C23.6907 15.961 23.8453 16.4338 23.9668 16.9186C24.1147 17.5083 23.7541 18.4511 23.1696 18.7377C22.1283 19.2483 21.3028 20.1065 20.443 20.9256C20.2798 21.081 20.0327 21.1501 19.8174 21.1754C19.583 21.203 19.447 21.0142 19.5399 20.7262C19.8563 19.7458 20.0332 18.7353 20.0667 17.6841C20.0757 17.4037 20.2002 17.2951 20.4597 17.3943C20.9696 17.5894 21.4906 17.7563 22.034 17.5985C22.1983 17.5508 22.3569 17.475 22.518 17.4121C22.5136 17.3617 22.5091 17.3114 22.5047 17.261C22.1749 17.2158 21.8444 17.1771 21.5155 17.1237C21.1499 17.0643 20.7841 17.0017 20.4226 16.9154C20.3546 16.8991 20.2458 16.7467 20.2582 16.6884C20.3491 16.2615 20.4507 15.8354 20.5845 15.4257C20.6228 15.3086 20.7737 15.1813 20.8808 15.1704C21.3969 15.1181 21.7455 14.7408 22.0843 14.3229C21.8196 14.4441 21.5604 14.5879 21.2891 14.6816C20.853 14.8324 20.8111 14.709 20.8298 14.1921C20.85 13.6303 21.2259 13.3806 21.4313 12.9868C21.1036 12.7482 20.8711 12.9318 20.744 13.4639C20.4698 14.6111 20.19 15.7564 19.9082 16.9009C19.5545 18.3376 19.183 19.7682 18.849 21.2114C18.7544 21.6203 18.7944 22.1186 18.3193 22.1667C17.9928 22.1998 17.6505 22.172 17.3299 22.0895C16.7268 21.9342 16.1343 21.7197 15.4621 21.5058C15.5379 21.6631 15.5706 21.8373 15.6533 21.8843C16.0458 22.1069 16.4481 22.3074 16.8549 22.4902C17.0808 22.5918 17.4035 22.441 17.5408 22.948C17.1787 22.9696 16.8532 23.0181 16.53 23.0022C15.8403 22.9683 15.1521 22.8892 14.4624 22.8532C14.2046 22.8397 14.0985 22.7405 14.1038 22.4166C14.1203 21.4098 14.1108 20.4023 14.1324 19.3958C14.1343 19.3071 14.2795 19.1807 14.3765 19.1461C14.5666 19.0784 14.7696 19.0631 15.0035 18.9117C14.606 18.6404 14.2086 18.3692 13.8394 18.1172C14.0568 17.1167 14.2697 16.1372 14.4992 15.0812C14.5765 15.1105 14.7094 15.1609 14.8615 15.275C14.9074 15.5332 14.9266 15.7296 14.962 15.9216C15.0566 16.4335 14.9471 17.0052 15.2773 17.4547C15.3864 16.8692 15.3961 16.2966 15.1904 15.7347C15.1375 15.5901 15.1121 15.431 15.0741 15.2786ZM16.0774 17.4494C16.0519 18.1381 16.0994 18.8518 15.4877 19.2851C15.4163 19.3356 15.3911 19.703 15.4561 19.7719C15.8917 20.2335 16.3523 20.6625 16.8181 21.0806C16.9104 21.1634 17.0611 21.1526 17.1848 21.185C17.2004 21.1447 17.216 21.1045 17.2316 21.0643C17.106 20.9546 16.9732 20.8548 16.8561 20.7332C16.5319 20.3968 16.2052 20.0624 15.9019 19.7001C15.8423 19.6289 15.8836 19.4363 15.8784 19.2997C15.9768 19.325 16.0979 19.315 16.1698 19.3815C16.4759 19.6653 16.7674 19.9716 17.0733 20.2789C17.206 19.9012 16.9945 19.2967 16.6502 19.1839C16.2746 19.061 16.2776 18.783 16.3335 18.4528C16.445 17.7934 16.59 17.1417 16.6868 16.4796C16.7312 16.1754 16.6943 15.8541 16.6943 15.5406C16.6356 15.531 16.5769 15.5214 16.5182 15.5118C16.3772 16.1341 16.2362 16.7564 16.0774 17.4494ZM19.7311 10.5777C19.919 10.7933 20.1068 11.0088 20.3381 11.2742C20.2343 10.4327 19.6121 10.0145 18.6849 10.0786C18.1739 10.114 17.5378 10.6107 17.5274 10.9999C17.7612 10.8721 17.9895 10.7478 18.2174 10.6227C18.6967 10.3595 19.182 10.2433 19.7311 10.5777Z" fill="#649BC6"/>
<path d="M9.32776 3.25507C9.5116 3.41786 9.64033 3.41552 9.68684 3.1569C9.91981 1.86135 10.717 1.10943 11.5636 0.447719C12.4417 -0.238593 13.9283 -0.188887 14.6532 0.968541C14.7085 1.05682 14.8976 1.08282 15.0085 1.05273C15.5747 0.89908 16.1356 0.717484 16.72 0.610746C16.6673 1.05034 16.365 1.0671 16.1549 1.21975C15.9612 1.36054 15.7339 1.45791 15.5765 1.64221C15.3542 1.90261 15.2309 2.14963 15.4942 2.58425C15.733 2.97827 15.7517 3.55916 15.8872 4.0498C16.0059 4.47957 16.1563 4.89659 16.2829 5.32344C16.3126 5.42362 16.3026 5.54074 16.3109 5.65006C16.2135 5.62325 16.0837 5.63533 16.0239 5.56348C15.5313 4.97155 15.3525 4.21319 15.2706 3.41046C15.263 3.33577 15.3 3.24946 15.2816 3.18233C15.2176 2.95002 15.1383 2.7238 15.0648 2.49527C14.9403 2.65274 14.8073 2.802 14.6931 2.96966C14.5329 3.20497 14.3865 3.45396 14.2034 3.74634C14.307 3.79441 14.3903 3.84803 14.4791 3.87183C15.1417 4.04947 15.4306 4.80911 15.1079 5.52323C15.0353 5.68384 14.999 5.87124 14.9134 6.01915C14.8504 6.12803 14.7343 6.19268 14.6419 6.27703C14.5741 6.14066 14.4502 6.00321 14.452 5.86819C14.4545 5.68115 14.5514 5.49589 14.6081 5.30995C14.6513 5.16813 14.7218 5.02935 14.7327 4.8841C14.7557 4.57683 14.7264 4.25985 14.3868 4.25412C14.0857 4.24904 13.9737 4.50677 13.9547 4.8336C13.9497 4.91818 13.9539 5.00352 13.8738 5.13167C13.7789 4.97247 13.6839 4.81327 13.5711 4.62418C13.3391 4.88553 13.084 5.1336 12.8785 5.4311C12.8254 5.50807 12.8852 5.78648 12.9659 5.8934C13.6657 6.82132 14.3804 7.73321 15.0948 8.64528C15.3083 8.91789 15.4515 8.76646 15.491 8.48774C15.6544 7.3346 16.1998 6.41426 16.7195 5.47282C16.8745 5.19205 16.9648 5.18368 17.1298 5.46631C17.3554 5.85269 17.6207 6.20573 17.845 6.53774C17.7128 6.69339 17.5624 6.82796 17.4568 7.00172C16.7174 8.21782 16.3964 9.67188 15.8922 11.0216C15.7535 11.3927 15.6846 11.801 15.5763 12.1893C15.5546 12.2671 15.4994 12.3316 15.4229 12.4676C14.9782 11.6003 15.2659 10.6695 15.0678 9.74529C14.8902 9.85522 14.7164 9.95397 14.5497 10.0677C14.1852 10.3163 13.8313 10.5885 13.4599 10.8206C13.1523 11.0128 12.8999 10.8725 12.6793 10.5708C11.4986 8.95539 10.3122 7.34603 9.12696 5.7355C9.09384 5.6905 9.04358 5.66244 9.01405 5.61504C8.83618 5.32952 8.48637 5.0025 8.52284 4.76078C8.6012 4.24139 8.87486 3.76267 9.0829 3.27613C9.10201 3.23144 9.22407 3.25014 9.32776 3.25507ZM13.674 10.0787C14.0218 9.79783 14.3778 9.52987 14.7096 9.224C14.768 9.17013 14.776 8.90504 14.7203 8.82715C14.3976 8.37614 14.0349 7.9664 13.7116 7.51594C12.8912 6.37264 11.9492 5.3485 11.3172 4.01875C11.1821 3.73434 11.0428 3.73023 10.8372 3.96681C10.6125 4.22529 10.3512 4.44592 10.0849 4.64208C9.80143 4.85089 9.49341 5.01171 9.32643 5.11381C9.46756 5.35632 9.57225 5.64444 9.75181 5.82583C10.5034 6.58509 10.2394 6.75307 11.0627 5.91534C11.4363 6.33929 11.8242 6.75244 12.177 7.20505C12.2395 7.2853 12.2069 7.58967 12.1287 7.68593C11.9696 7.88187 11.7495 8.00645 11.5293 8.18033C11.9381 8.74247 12.3581 9.24061 12.6956 9.80928C12.9641 10.2616 13.2268 10.3784 13.674 10.0787ZM9.62722 4.34896C9.58464 4.13393 9.54207 3.9189 9.4995 3.70387C9.44458 3.70128 9.38966 3.69869 9.33474 3.6961C9.22359 4.03573 9.11243 4.37536 9.00128 4.71498C9.05472 4.76367 9.10816 4.81235 9.1616 4.86103C9.3089 4.71194 9.4562 4.56285 9.62722 4.34896Z" fill="#649BC6"/>
<path d="M9.57266 21.735C9.64835 22.0989 9.53204 22.2503 9.24049 22.108C8.92203 21.9525 8.61229 21.7653 8.31397 21.5601C8.23056 21.5028 8.20089 21.3329 8.13187 21.1826C7.89841 21.1508 7.57907 21.2343 7.48808 20.7756C7.48169 20.7433 7.28129 20.71 7.21481 20.7604C6.64617 21.1909 6.0727 21.6162 5.53124 22.0931C5.16314 22.4173 4.82505 22.4778 4.53363 22.1061C4.66168 22.0223 4.78229 21.9513 4.89634 21.8676C5.98321 21.0691 7.07167 20.2737 8.15203 19.4628C8.30985 19.3443 8.42153 19.1406 8.56493 18.9906C8.98384 18.5524 9.42486 18.2216 10.0313 18.2738C10.2187 18.29 10.4165 17.9983 10.6229 17.8815C10.7314 17.8201 10.8687 17.8321 10.993 17.8109C10.9431 17.9485 10.9238 18.1328 10.8373 18.2142C10.633 18.4064 10.3968 18.5496 10.1735 18.7125C10.1754 18.7575 10.1773 18.8024 10.1792 18.8473C10.3267 18.8852 10.4732 18.9476 10.622 18.957C11.5871 19.0178 12.5524 19.0765 13.5183 19.1137C13.7624 19.1231 13.8222 19.2381 13.8163 19.505C13.7955 20.4586 13.8375 21.4189 13.7554 22.3641C13.7098 22.8887 13.4653 23.3884 13.28 23.9999C12.5217 23.3304 11.8214 22.7294 11.1432 22.0945C11.0447 22.0023 11.0515 21.7482 10.9785 21.4365C10.8909 21.4551 10.7079 21.4823 10.5299 21.5343C10.2643 21.6118 10.0022 21.7068 9.71483 21.7358C9.48881 21.4207 9.28664 21.1642 9.07316 20.8933C9.24364 20.4109 9.05678 20.1629 8.37127 20.1124C8.62822 20.5684 8.86216 20.985 9.09855 21.3995C9.1108 21.4209 9.14548 21.4223 9.16718 21.438C9.30274 21.5362 9.43758 21.6358 9.57266 21.735Z" fill="#649BC6"/>
<path d="M11.0122 16.6788C10.5176 16.8024 10.0433 16.9425 9.59958 17.0912C9.09103 17.2616 8.6736 17.3133 8.18906 17.1356C8.09686 17.1018 7.91092 17.2696 7.82635 17.399C7.18222 18.385 6.55389 19.3857 5.91629 20.3778C5.85104 20.4794 5.75719 20.5544 5.67661 20.6418C5.64489 20.6252 5.61316 20.6086 5.58144 20.592C5.59463 20.4777 5.57863 20.3411 5.62552 20.2524C6.09589 19.3623 6.58833 18.4889 7.05125 17.5934C7.56032 16.6086 8.1116 15.6426 8.51496 14.5966C8.75376 13.9772 9.11528 13.7226 9.57494 13.5273C9.90459 13.3873 10.2141 13.2418 10.5374 13.6605C10.8154 14.0205 11.1975 14.2668 11.5419 14.5488C11.6062 14.6014 11.7111 14.6049 11.795 14.597C12.1805 14.5606 12.5648 14.489 12.9506 14.4751C13.2562 14.464 13.5658 14.5002 13.8687 14.5545C13.9581 14.5706 14.1041 14.7246 14.1003 14.8072C14.044 16.0464 13.8006 17.2212 13.2023 18.2598C13.1743 18.3083 13.1447 18.3554 13.0864 18.452C12.398 17.8577 11.7211 17.2733 11.0122 16.6788ZM10.0292 15.7073C9.85316 15.5275 9.6968 15.2729 9.49367 15.1958C9.37157 15.1494 9.17655 15.3798 9.0143 15.4858C9.02847 15.5174 9.04263 15.549 9.0568 15.5807C9.27559 15.5673 9.49439 15.554 9.71318 15.5407C9.36989 15.9661 8.74378 16.0146 8.84669 16.863C9.26158 16.5402 9.6367 16.2519 10.0063 15.9539C10.035 15.9307 10.0253 15.839 10.0292 15.7073ZM11.3643 15.1145C11.1258 15.2321 11.0543 15.7828 11.2302 16.1477C11.4288 15.8901 11.4615 15.6987 11.3643 15.1145Z" fill="#649BC6"/>
<path d="M3.2515 16.1007C3.07039 15.2434 2.8921 14.3852 2.70705 13.5291C2.6055 13.0592 2.47801 12.5969 2.3886 12.124C2.28782 11.5909 2.41487 11.4248 2.92068 11.3699C3.37155 14.4953 3.95014 17.586 4.77857 20.6066C4.73383 20.6358 4.68909 20.6649 4.64435 20.6941C4.58482 20.5867 4.50137 20.4885 4.46942 20.3704C4.09652 18.9913 3.73163 17.6091 3.36298 16.2283C3.35163 16.1858 3.32251 16.1502 3.27485 16.1043C3.24802 16.0973 3.2515 16.1007 3.2515 16.1007Z" fill="#649BC6"/>
<path d="M4.13083 14.4697C4.03814 13.2855 3.93806 12.1419 3.88262 10.9953C3.84545 10.2265 3.87378 10.2246 4.45648 9.6467C4.49547 9.82557 4.55447 9.97199 4.55518 10.1188C4.56233 11.5917 4.55292 13.0647 4.56342 14.5375C4.568 15.1801 4.61014 15.8223 4.63047 16.4649C4.63793 16.7009 4.63167 16.9375 4.63167 17.1738C4.57717 17.1795 4.52267 17.1852 4.46817 17.1909C4.35959 16.2969 4.25101 15.403 4.13083 14.4697Z" fill="#649BC6"/>
<path d="M2.24859 16.8207C2.49824 17.31 2.73045 17.7726 2.96266 18.2351C2.92791 18.269 2.89316 18.3028 2.8584 18.3367C2.75631 18.2068 2.64609 18.0848 2.55338 17.9459C1.70394 16.6733 0.850362 15.4044 0.0239626 14.1106C-0.0418509 14.0075 0.0386458 13.6784 0.135433 13.5381C0.292143 13.3109 0.700295 13.3593 0.813227 13.5985C1.14607 14.3035 1.46053 15.0211 1.7783 15.7362C1.9337 16.0859 2.08048 16.4412 2.24859 16.8207Z" fill="#649BC6"/>
<path d="M8.3015 12.4503C7.68561 13.508 7.09084 14.5431 6.48658 15.5702C6.43503 15.6578 6.32029 15.6919 6.2349 15.7509C6.23443 15.6286 6.19564 15.4801 6.23934 15.388C6.756 14.2994 7.28797 13.2212 7.80916 12.1356C7.99978 11.7385 8.16986 11.3273 8.35552 10.9267C8.39628 10.8388 8.46347 10.7685 8.51922 10.689C8.87859 11.0889 8.91522 11.3538 8.68305 11.7757C8.5633 11.9934 8.44117 12.2091 8.3015 12.4503Z" fill="#649BC6"/>
<path d="M3.76902 21.7533C3.05515 21.9337 2.37677 22.1658 1.68519 22.2645C1.15118 22.3407 0.670645 22.0185 0.213746 21.7168C0.219518 21.6613 0.225291 21.6057 0.231063 21.5502C1.49163 21.4992 2.7522 21.4481 4.01276 21.397C4.02729 21.4479 4.04181 21.4988 4.05633 21.5497C3.9705 21.6157 3.88467 21.6816 3.76902 21.7533Z" fill="#649BC6"/>
<path d="M5.85001 12.7383C6.01805 11.8825 6.08544 11.0304 6.47704 10.1717C6.71716 10.6516 6.83583 11.0595 6.74386 11.4665C6.52478 12.4357 6.2582 13.3897 6.00347 14.347C5.96298 14.4992 5.88441 14.6367 5.7619 14.7693C5.53049 14.0892 5.81743 13.4383 5.85001 12.7383Z" fill="#649BC6"/>
<path d="M2.73631 18.6425C2.95573 18.9612 3.15533 19.2572 3.35493 19.5532C3.33481 19.5875 3.31468 19.6218 3.29456 19.6562C2.27759 18.8092 1.26063 17.9622 0.243664 17.1152C0.245249 17.0842 0.246835 17.0533 0.24842 17.0223C0.391652 17.0223 0.540133 16.9925 0.677236 17.0273C1.39936 17.2105 2.08051 17.4844 2.49239 18.3088C2.55025 18.4246 2.64098 18.5168 2.73631 18.6425Z" fill="#649BC6"/>
<path d="M7.33101 19.516C7.11981 19.7216 6.92688 19.9025 6.73394 20.0835C6.70149 20.0479 6.66903 20.0123 6.63658 19.9766C6.67827 19.8859 6.70303 19.7717 6.76426 19.7081C7.4271 19.0191 8.08001 18.3137 8.77287 17.6706C8.96414 17.493 9.2791 17.5074 9.5373 17.4337C9.55689 17.491 9.57648 17.5483 9.59607 17.6056C8.84715 18.2341 8.09822 18.8627 7.33101 19.516Z" fill="#649BC6"/>
<path d="M9.59626 13.1089C9.82642 12.5041 10.0727 11.9283 10.3188 11.3531C10.7667 11.6198 10.7939 11.7475 10.527 12.1669C10.342 12.4574 10.1621 12.7527 9.97255 13.0389C9.87965 13.1792 9.78224 13.3683 9.59626 13.1089Z" fill="#649BC6"/>
<path d="M15.0741 15.2786C15.3853 15.3899 15.6965 15.5013 16.06 15.6313C16.0238 15.0503 15.9972 14.4917 15.9516 13.9353C15.9182 13.5272 15.8321 13.1229 15.8223 12.7151C15.8155 12.4321 15.8789 12.1394 15.9443 11.8624C16.3764 10.033 17.1067 8.37401 17.9751 6.8259C18.3309 6.95216 18.693 7.07373 19.0513 7.20922C19.9079 7.53305 20.4818 8.30359 21.0559 9.06603C21.3127 9.40705 21.5395 9.78022 21.7858 10.1329C22.4647 11.1048 22.631 12.3431 22.9917 13.479C23.2006 14.1368 23.3666 14.814 23.5551 15.4812C23.6907 15.961 23.8453 16.4338 23.9668 16.9186C24.1147 17.5083 23.7541 18.4511 23.1696 18.7377C22.1283 19.2483 21.3028 20.1065 20.443 20.9256C20.2798 21.081 20.0327 21.1501 19.8174 21.1754C19.583 21.203 19.447 21.0142 19.5399 20.7262C19.8563 19.7458 20.0332 18.7353 20.0667 17.6841C20.0757 17.4037 20.2002 17.2951 20.4597 17.3943C20.9696 17.5894 21.4906 17.7563 22.034 17.5985C22.1983 17.5508 22.3569 17.475 22.518 17.4121C22.5136 17.3617 22.5091 17.3114 22.5047 17.261C22.1749 17.2158 21.8444 17.1771 21.5155 17.1237C21.1499 17.0643 20.7841 17.0017 20.4226 16.9154C20.3546 16.8991 20.2458 16.7467 20.2582 16.6884C20.3491 16.2615 20.4507 15.8354 20.5845 15.4257C20.6228 15.3086 20.7737 15.1813 20.8808 15.1704C21.3969 15.1181 21.7455 14.7408 22.0843 14.3229C21.8196 14.4441 21.5604 14.5879 21.2891 14.6816C20.853 14.8324 20.8111 14.709 20.8298 14.1921C20.85 13.6303 21.2259 13.3806 21.4313 12.9868C21.1036 12.7482 20.8711 12.9318 20.744 13.4639C20.4698 14.6111 20.19 15.7564 19.9082 16.9009C19.5545 18.3376 19.183 19.7682 18.849 21.2114C18.7544 21.6203 18.7944 22.1186 18.3193 22.1667C17.9928 22.1998 17.6505 22.172 17.3299 22.0895C16.7268 21.9342 16.1343 21.7197 15.4621 21.5058C15.5379 21.6631 15.5706 21.8373 15.6533 21.8843C16.0458 22.1069 16.4481 22.3074 16.8549 22.4902C17.0808 22.5918 17.4035 22.441 17.5408 22.948C17.1787 22.9696 16.8532 23.0181 16.53 23.0022C15.8403 22.9683 15.1521 22.8892 14.4624 22.8532C14.2046 22.8397 14.0985 22.7405 14.1038 22.4166C14.1203 21.4098 14.1108 20.4023 14.1324 19.3958C14.1343 19.3071 14.2795 19.1807 14.3765 19.1461C14.5666 19.0784 14.7696 19.0631 15.0035 18.9117C14.606 18.6404 14.2086 18.3692 13.8394 18.1172C14.0568 17.1167 14.2697 16.1372 14.4992 15.0812C14.5765 15.1105 14.7094 15.1609 14.8615 15.275C14.9074 15.5332 14.9266 15.7296 14.962 15.9216C15.0566 16.4335 14.9471 17.0052 15.2773 17.4547C15.3864 16.8692 15.3961 16.2966 15.1904 15.7347C15.1375 15.5901 15.1121 15.431 15.0741 15.2786ZM16.0774 17.4494C16.0519 18.1381 16.0994 18.8518 15.4877 19.2851C15.4163 19.3356 15.3911 19.703 15.4561 19.7719C15.8917 20.2335 16.3523 20.6625 16.8181 21.0806C16.9104 21.1634 17.0611 21.1526 17.1848 21.185C17.2004 21.1447 17.216 21.1045 17.2316 21.0643C17.106 20.9546 16.9732 20.8548 16.8561 20.7332C16.5319 20.3968 16.2052 20.0624 15.9019 19.7001C15.8423 19.6289 15.8836 19.4363 15.8784 19.2997C15.9768 19.325 16.0979 19.315 16.1698 19.3815C16.4759 19.6653 16.7674 19.9716 17.0733 20.2789C17.206 19.9012 16.9945 19.2967 16.6502 19.1839C16.2746 19.061 16.2776 18.783 16.3335 18.4528C16.445 17.7934 16.59 17.1417 16.6868 16.4796C16.7312 16.1754 16.6943 15.8541 16.6943 15.5406C16.6356 15.531 16.5769 15.5214 16.5182 15.5118C16.3772 16.1341 16.2362 16.7564 16.0774 17.4494ZM19.7311 10.5777C19.919 10.7933 20.1068 11.0088 20.3381 11.2742C20.2343 10.4327 19.6121 10.0145 18.6849 10.0786C18.1739 10.114 17.5378 10.6107 17.5274 10.9999C17.7612 10.8721 17.9895 10.7478 18.2174 10.6227C18.6967 10.3595 19.182 10.2433 19.7311 10.5777Z" stroke="#649BC6" stroke-width="2" mask="url(#path-1-inside-1_18_82)"/>
<path d="M9.32776 3.25507C9.5116 3.41786 9.64033 3.41552 9.68684 3.1569C9.91981 1.86135 10.717 1.10943 11.5636 0.447719C12.4417 -0.238593 13.9283 -0.188887 14.6532 0.968541C14.7085 1.05682 14.8976 1.08282 15.0085 1.05273C15.5747 0.89908 16.1356 0.717484 16.72 0.610746C16.6673 1.05034 16.365 1.0671 16.1549 1.21975C15.9612 1.36054 15.7339 1.45791 15.5765 1.64221C15.3542 1.90261 15.2309 2.14963 15.4942 2.58425C15.733 2.97827 15.7517 3.55916 15.8872 4.0498C16.0059 4.47957 16.1563 4.89659 16.2829 5.32344C16.3126 5.42362 16.3026 5.54074 16.3109 5.65006C16.2135 5.62325 16.0837 5.63533 16.0239 5.56348C15.5313 4.97155 15.3525 4.21319 15.2706 3.41046C15.263 3.33577 15.3 3.24946 15.2816 3.18233C15.2176 2.95002 15.1383 2.7238 15.0648 2.49527C14.9403 2.65274 14.8073 2.802 14.6931 2.96966C14.5329 3.20497 14.3865 3.45396 14.2034 3.74634C14.307 3.79441 14.3903 3.84803 14.4791 3.87183C15.1417 4.04947 15.4306 4.80911 15.1079 5.52323C15.0353 5.68384 14.999 5.87124 14.9134 6.01915C14.8504 6.12803 14.7343 6.19268 14.6419 6.27703C14.5741 6.14066 14.4502 6.00321 14.452 5.86819C14.4545 5.68115 14.5514 5.49589 14.6081 5.30995C14.6513 5.16813 14.7218 5.02935 14.7327 4.8841C14.7557 4.57683 14.7264 4.25985 14.3868 4.25412C14.0857 4.24904 13.9737 4.50677 13.9547 4.8336C13.9497 4.91818 13.9539 5.00352 13.8738 5.13167C13.7789 4.97247 13.6839 4.81327 13.5711 4.62418C13.3391 4.88553 13.084 5.1336 12.8785 5.4311C12.8254 5.50807 12.8852 5.78648 12.9659 5.8934C13.6657 6.82132 14.3804 7.73321 15.0948 8.64528C15.3083 8.91789 15.4515 8.76646 15.491 8.48774C15.6544 7.3346 16.1998 6.41426 16.7195 5.47282C16.8745 5.19205 16.9648 5.18368 17.1298 5.46631C17.3554 5.85269 17.6207 6.20573 17.845 6.53774C17.7128 6.69339 17.5624 6.82796 17.4568 7.00172C16.7174 8.21782 16.3964 9.67188 15.8922 11.0216C15.7535 11.3927 15.6846 11.801 15.5763 12.1893C15.5546 12.2671 15.4994 12.3316 15.4229 12.4676C14.9782 11.6003 15.2659 10.6695 15.0678 9.74529C14.8902 9.85522 14.7164 9.95397 14.5497 10.0677C14.1852 10.3163 13.8313 10.5885 13.4599 10.8206C13.1523 11.0128 12.8999 10.8725 12.6793 10.5708C11.4986 8.95539 10.3122 7.34603 9.12696 5.7355C9.09384 5.6905 9.04358 5.66244 9.01405 5.61504C8.83618 5.32952 8.48637 5.0025 8.52284 4.76078C8.6012 4.24139 8.87486 3.76267 9.0829 3.27613C9.10201 3.23144 9.22407 3.25014 9.32776 3.25507ZM13.674 10.0787C14.0218 9.79783 14.3778 9.52987 14.7096 9.224C14.768 9.17013 14.776 8.90504 14.7203 8.82715C14.3976 8.37614 14.0349 7.9664 13.7116 7.51594C12.8912 6.37264 11.9492 5.3485 11.3172 4.01875C11.1821 3.73434 11.0428 3.73023 10.8372 3.96681C10.6125 4.22529 10.3512 4.44592 10.0849 4.64208C9.80143 4.85089 9.49341 5.01171 9.32643 5.11381C9.46756 5.35632 9.57225 5.64444 9.75181 5.82583C10.5034 6.58509 10.2394 6.75307 11.0627 5.91534C11.4363 6.33929 11.8242 6.75244 12.177 7.20505C12.2395 7.2853 12.2069 7.58967 12.1287 7.68593C11.9696 7.88187 11.7495 8.00645 11.5293 8.18033C11.9381 8.74247 12.3581 9.24061 12.6956 9.80928C12.9641 10.2616 13.2268 10.3784 13.674 10.0787ZM9.62722 4.34896C9.58464 4.13393 9.54207 3.9189 9.4995 3.70387C9.44458 3.70128 9.38966 3.69869 9.33474 3.6961C9.22359 4.03573 9.11243 4.37536 9.00128 4.71498C9.05472 4.76367 9.10816 4.81235 9.1616 4.86103C9.3089 4.71194 9.4562 4.56285 9.62722 4.34896Z" stroke="#649BC6" stroke-width="2" mask="url(#path-1-inside-1_18_82)"/>
<path d="M9.57266 21.735C9.64835 22.0989 9.53204 22.2503 9.24049 22.108C8.92203 21.9525 8.61229 21.7653 8.31397 21.5601C8.23056 21.5028 8.20089 21.3329 8.13187 21.1826C7.89841 21.1508 7.57907 21.2343 7.48808 20.7756C7.48169 20.7433 7.28129 20.71 7.21481 20.7604C6.64617 21.1909 6.0727 21.6162 5.53124 22.0931C5.16314 22.4173 4.82505 22.4778 4.53363 22.1061C4.66168 22.0223 4.78229 21.9513 4.89634 21.8676C5.98321 21.0691 7.07167 20.2737 8.15203 19.4628C8.30985 19.3443 8.42153 19.1406 8.56493 18.9906C8.98384 18.5524 9.42486 18.2216 10.0313 18.2738C10.2187 18.29 10.4165 17.9983 10.6229 17.8815C10.7314 17.8201 10.8687 17.8321 10.993 17.8109C10.9431 17.9485 10.9238 18.1328 10.8373 18.2142C10.633 18.4064 10.3968 18.5496 10.1735 18.7125C10.1754 18.7575 10.1773 18.8024 10.1792 18.8473C10.3267 18.8852 10.4732 18.9476 10.622 18.957C11.5871 19.0178 12.5524 19.0765 13.5183 19.1137C13.7624 19.1231 13.8222 19.2381 13.8163 19.505C13.7955 20.4586 13.8375 21.4189 13.7554 22.3641C13.7098 22.8887 13.4653 23.3884 13.28 23.9999C12.5217 23.3304 11.8214 22.7294 11.1432 22.0945C11.0447 22.0023 11.0515 21.7482 10.9785 21.4365C10.8909 21.4551 10.7079 21.4823 10.5299 21.5343C10.2643 21.6118 10.0022 21.7068 9.71483 21.7358C9.48881 21.4207 9.28664 21.1642 9.07316 20.8933C9.24364 20.4109 9.05678 20.1629 8.37127 20.1124C8.62822 20.5684 8.86216 20.985 9.09855 21.3995C9.1108 21.4209 9.14548 21.4223 9.16718 21.438C9.30274 21.5362 9.43758 21.6358 9.57266 21.735Z" stroke="#649BC6" stroke-width="2" mask="url(#path-1-inside-1_18_82)"/>
<path d="M11.0122 16.6788C10.5176 16.8024 10.0433 16.9425 9.59958 17.0912C9.09103 17.2616 8.6736 17.3133 8.18906 17.1356C8.09686 17.1018 7.91092 17.2696 7.82635 17.399C7.18222 18.385 6.55389 19.3857 5.91629 20.3778C5.85104 20.4794 5.75719 20.5544 5.67661 20.6418C5.64489 20.6252 5.61316 20.6086 5.58144 20.592C5.59463 20.4777 5.57863 20.3411 5.62552 20.2524C6.09589 19.3623 6.58833 18.4889 7.05125 17.5934C7.56032 16.6086 8.1116 15.6426 8.51496 14.5966C8.75376 13.9772 9.11528 13.7226 9.57494 13.5273C9.90459 13.3873 10.2141 13.2418 10.5374 13.6605C10.8154 14.0205 11.1975 14.2668 11.5419 14.5488C11.6062 14.6014 11.7111 14.6049 11.795 14.597C12.1805 14.5606 12.5648 14.489 12.9506 14.4751C13.2562 14.464 13.5658 14.5002 13.8687 14.5545C13.9581 14.5706 14.1041 14.7246 14.1003 14.8072C14.044 16.0464 13.8006 17.2212 13.2023 18.2598C13.1743 18.3083 13.1447 18.3554 13.0864 18.452C12.398 17.8577 11.7211 17.2733 11.0122 16.6788ZM10.0292 15.7073C9.85316 15.5275 9.6968 15.2729 9.49367 15.1958C9.37157 15.1494 9.17655 15.3798 9.0143 15.4858C9.02847 15.5174 9.04263 15.549 9.0568 15.5807C9.27559 15.5673 9.49439 15.554 9.71318 15.5407C9.36989 15.9661 8.74378 16.0146 8.84669 16.863C9.26158 16.5402 9.6367 16.2519 10.0063 15.9539C10.035 15.9307 10.0253 15.839 10.0292 15.7073ZM11.3643 15.1145C11.1258 15.2321 11.0543 15.7828 11.2302 16.1477C11.4288 15.8901 11.4615 15.6987 11.3643 15.1145Z" stroke="#649BC6" stroke-width="2" mask="url(#path-1-inside-1_18_82)"/>
<path d="M3.2515 16.1007C3.07039 15.2434 2.8921 14.3852 2.70705 13.5291C2.6055 13.0592 2.47801 12.5969 2.3886 12.124C2.28782 11.5909 2.41487 11.4248 2.92068 11.3699C3.37155 14.4953 3.95014 17.586 4.77857 20.6066C4.73383 20.6358 4.68909 20.6649 4.64435 20.6941C4.58482 20.5867 4.50137 20.4885 4.46942 20.3704C4.09652 18.9913 3.73163 17.6091 3.36298 16.2283C3.35163 16.1858 3.32251 16.1502 3.27485 16.1043C3.24802 16.0973 3.2515 16.1007 3.2515 16.1007Z" stroke="#649BC6" stroke-width="2" mask="url(#path-1-inside-1_18_82)"/>
<path d="M4.13083 14.4697C4.03814 13.2855 3.93806 12.1419 3.88262 10.9953C3.84545 10.2265 3.87378 10.2246 4.45648 9.6467C4.49547 9.82557 4.55447 9.97199 4.55518 10.1188C4.56233 11.5917 4.55292 13.0647 4.56342 14.5375C4.568 15.1801 4.61014 15.8223 4.63047 16.4649C4.63793 16.7009 4.63167 16.9375 4.63167 17.1738C4.57717 17.1795 4.52267 17.1852 4.46817 17.1909C4.35959 16.2969 4.25101 15.403 4.13083 14.4697Z" stroke="#649BC6" stroke-width="2" mask="url(#path-1-inside-1_18_82)"/>
<path d="M2.24859 16.8207C2.49824 17.31 2.73045 17.7726 2.96266 18.2351C2.92791 18.269 2.89316 18.3028 2.8584 18.3367C2.75631 18.2068 2.64609 18.0848 2.55338 17.9459C1.70394 16.6733 0.850362 15.4044 0.0239626 14.1106C-0.0418509 14.0075 0.0386458 13.6784 0.135433 13.5381C0.292143 13.3109 0.700295 13.3593 0.813227 13.5985C1.14607 14.3035 1.46053 15.0211 1.7783 15.7362C1.9337 16.0859 2.08048 16.4412 2.24859 16.8207Z" stroke="#649BC6" stroke-width="2" mask="url(#path-1-inside-1_18_82)"/>
<path d="M8.3015 12.4503C7.68561 13.508 7.09084 14.5431 6.48658 15.5702C6.43503 15.6578 6.32029 15.6919 6.2349 15.7509C6.23443 15.6286 6.19564 15.4801 6.23934 15.388C6.756 14.2994 7.28797 13.2212 7.80916 12.1356C7.99978 11.7385 8.16986 11.3273 8.35552 10.9267C8.39628 10.8388 8.46347 10.7685 8.51922 10.689C8.87859 11.0889 8.91522 11.3538 8.68305 11.7757C8.5633 11.9934 8.44117 12.2091 8.3015 12.4503Z" stroke="#649BC6" stroke-width="2" mask="url(#path-1-inside-1_18_82)"/>
<path d="M3.76902 21.7533C3.05515 21.9337 2.37677 22.1658 1.68519 22.2645C1.15118 22.3407 0.670645 22.0185 0.213746 21.7168C0.219518 21.6613 0.225291 21.6057 0.231063 21.5502C1.49163 21.4992 2.7522 21.4481 4.01276 21.397C4.02729 21.4479 4.04181 21.4988 4.05633 21.5497C3.9705 21.6157 3.88467 21.6816 3.76902 21.7533Z" stroke="#649BC6" stroke-width="2" mask="url(#path-1-inside-1_18_82)"/>
<path d="M5.85001 12.7383C6.01805 11.8825 6.08544 11.0304 6.47704 10.1717C6.71716 10.6516 6.83583 11.0595 6.74386 11.4665C6.52478 12.4357 6.2582 13.3897 6.00347 14.347C5.96298 14.4992 5.88441 14.6367 5.7619 14.7693C5.53049 14.0892 5.81743 13.4383 5.85001 12.7383Z" stroke="#649BC6" stroke-width="2" mask="url(#path-1-inside-1_18_82)"/>
<path d="M2.73631 18.6425C2.95573 18.9612 3.15533 19.2572 3.35493 19.5532C3.33481 19.5875 3.31468 19.6218 3.29456 19.6562C2.27759 18.8092 1.26063 17.9622 0.243664 17.1152C0.245249 17.0842 0.246835 17.0533 0.24842 17.0223C0.391652 17.0223 0.540133 16.9925 0.677236 17.0273C1.39936 17.2105 2.08051 17.4844 2.49239 18.3088C2.55025 18.4246 2.64098 18.5168 2.73631 18.6425Z" stroke="#649BC6" stroke-width="2" mask="url(#path-1-inside-1_18_82)"/>
<path d="M7.33101 19.516C7.11981 19.7216 6.92688 19.9025 6.73394 20.0835C6.70149 20.0479 6.66903 20.0123 6.63658 19.9766C6.67827 19.8859 6.70303 19.7717 6.76426 19.7081C7.4271 19.0191 8.08001 18.3137 8.77287 17.6706C8.96414 17.493 9.2791 17.5074 9.5373 17.4337C9.55689 17.491 9.57648 17.5483 9.59607 17.6056C8.84715 18.2341 8.09822 18.8627 7.33101 19.516Z" stroke="#649BC6" stroke-width="2" mask="url(#path-1-inside-1_18_82)"/>
<path d="M9.59626 13.1089C9.82642 12.5041 10.0727 11.9283 10.3188 11.3531C10.7667 11.6198 10.7939 11.7475 10.527 12.1669C10.342 12.4574 10.1621 12.7527 9.97255 13.0389C9.87965 13.1792 9.78224 13.3683 9.59626 13.1089Z" stroke="#649BC6" stroke-width="2" mask="url(#path-1-inside-1_18_82)"/>
</svg>
