<svg width="48" height="48" viewBox="0 0 48 48" fill="none" xmlns="http://www.w3.org/2000/svg">
<g style="mix-blend-mode:color-burn">
path{
    fill: black;
}
@media (prefers-color-scheme: dark) {
    path {
    fill: white;
    }
}
<path d="M30.1482 26.0724C30.7706 26.2624 31.3931 26.4524 32.1201 26.6743C32.0476 25.6828 31.9944 24.7296 31.9033 23.7802C31.8364 23.0837 31.6643 22.3939 31.6446 21.6979C31.6309 21.215 31.7577 20.7155 31.8886 20.2429C32.7528 17.121 34.2135 14.29 35.9503 11.6482C36.6618 11.8636 37.3859 12.0711 38.1027 12.3023C39.8159 12.8549 40.9637 14.1698 42.1118 15.4709C42.6253 16.0528 43.079 16.6896 43.5717 17.2914C44.9293 18.95 45.2621 21.063 45.9834 23.0015C46.4011 24.1239 46.7331 25.2797 47.1102 26.4182C47.3814 27.237 47.6906 28.0437 47.9337 28.8709C48.2293 29.8773 47.5082 31.4862 46.3392 31.9752C44.2565 32.8465 42.6055 34.3111 40.8861 35.7088C40.5597 35.9741 40.0654 36.0919 39.6349 36.1351C39.166 36.1821 38.8941 35.86 39.0799 35.3686C39.7125 33.6956 40.0665 31.9712 40.1334 30.1773C40.1513 29.6988 40.4004 29.5134 40.9193 29.6828C41.9391 30.0157 42.9812 30.3006 44.0681 30.0312C44.3966 29.9498 44.7137 29.8205 45.036 29.7131C45.0271 29.6272 45.0182 29.5413 45.0093 29.4554C44.3498 29.3783 43.6887 29.3122 43.031 29.221C42.2998 29.1197 41.5683 29.0128 40.8452 28.8655C40.7092 28.8378 40.4916 28.5776 40.5164 28.4782C40.6982 27.7497 40.9013 27.0225 41.169 26.3235C41.2455 26.1236 41.5473 25.9064 41.7616 25.8878C42.7939 25.7985 43.491 25.1546 44.1685 24.4415C43.6392 24.6485 43.1207 24.8937 42.5782 25.0537C41.706 25.3109 41.6223 25.1004 41.6596 24.2184C41.7001 23.2597 42.4518 22.8335 42.8626 22.1615C42.2072 21.7544 41.7422 22.0678 41.4879 22.9756C40.9396 24.9333 40.3801 26.8877 39.8165 28.8409C39.1091 31.2925 38.3659 33.7339 37.698 36.1966C37.5087 36.8944 37.5887 37.7446 36.6385 37.8268C35.9856 37.8833 35.3009 37.8358 34.6597 37.695C33.4536 37.43 32.2687 37.0639 30.9242 36.6989C31.0758 36.9673 31.1411 37.2647 31.3067 37.3448C32.0917 37.7247 32.8962 38.0669 33.7097 38.3788C34.1617 38.5521 34.8069 38.2948 35.0817 39.1599C34.3573 39.1968 33.7065 39.2797 33.06 39.2525C31.6805 39.1946 30.3042 39.0597 28.9247 38.9982C28.4092 38.9752 28.1971 38.806 28.2077 38.2532C28.2407 36.5351 28.2215 34.8159 28.2647 33.0982C28.2685 32.9469 28.5589 32.7311 28.753 32.6722C29.1331 32.5566 29.5392 32.5306 30.007 32.2722C29.2121 31.8093 28.4172 31.3463 27.6789 30.9164C28.1137 29.2092 28.5394 27.5377 28.9984 25.7355C29.1531 25.7856 29.4188 25.8715 29.723 26.0663C29.8148 26.5069 29.8531 26.842 29.9241 27.1696C30.1133 28.0433 29.8942 29.0187 30.5547 29.7859C30.7728 28.7868 30.7922 27.8096 30.3808 26.8508C30.2749 26.6041 30.2242 26.3325 30.1482 26.0724ZM32.1548 29.7769C32.1038 30.952 32.1988 32.1699 30.9754 32.9094C30.8326 32.9956 30.7823 33.6225 30.9123 33.7401C31.7835 34.5278 32.7045 35.2599 33.6363 35.9733C33.8209 36.1146 34.1221 36.0962 34.3696 36.1514C34.4008 36.0828 34.4321 36.0142 34.4633 35.9455C34.212 35.7583 33.9465 35.588 33.7123 35.3806C33.0639 34.8065 32.4103 34.2358 31.8038 33.6175C31.6847 33.4961 31.7672 33.1674 31.7567 32.9343C31.9536 32.9774 32.1958 32.9603 32.3395 33.074C32.9517 33.5581 33.5348 34.081 34.1467 34.6053C34.4119 33.9607 33.9891 32.9291 33.3005 32.7368C32.5492 32.5269 32.5553 32.0526 32.667 31.489C32.89 30.3639 33.18 29.2517 33.3735 28.1218C33.4624 27.6028 33.3886 27.0545 33.3886 26.5195C33.2712 26.5031 33.1538 26.4867 33.0364 26.4703C32.7543 27.5323 32.4723 28.5943 32.1548 29.7769ZM39.4622 18.0504C39.8379 18.4183 40.2137 18.7862 40.6763 19.2391C40.4686 17.8031 39.2242 17.0894 37.3697 17.1989C36.3478 17.2592 35.0756 18.1068 35.0549 18.7709C35.5225 18.5528 35.9789 18.3408 36.4347 18.1272C37.3934 17.6781 38.3639 17.4798 39.4622 18.0504Z" fill="#243847"/>
<path d="M18.6555 5.55468C19.0232 5.83247 19.2807 5.82847 19.3737 5.38714C19.8396 3.17633 21.4341 1.89321 23.1273 0.764018C24.8834 -0.407152 27.8566 -0.32233 29.3065 1.65278C29.417 1.80342 29.7952 1.84779 30.017 1.79645C31.1493 1.53425 32.2712 1.22436 33.4399 1.04222C33.3346 1.79236 32.7299 1.82097 32.3098 2.08146C31.9223 2.32171 31.4678 2.48788 31.153 2.80238C30.7083 3.24674 30.4619 3.66828 30.9885 4.40993C31.4659 5.08232 31.5034 6.07359 31.7744 6.91085C32.0117 7.64424 32.3126 8.35586 32.5657 9.08427C32.6251 9.25523 32.6052 9.45508 32.6218 9.64164C32.4271 9.59588 32.1674 9.6165 32.0478 9.49389C31.0625 8.48379 30.705 7.18967 30.5412 5.81984C30.526 5.69238 30.6001 5.54509 30.5631 5.43054C30.4352 5.03411 30.2766 4.64808 30.1297 4.25809C29.8805 4.52681 29.6146 4.78153 29.3862 5.06763C29.0657 5.46918 28.7731 5.89406 28.4068 6.393C28.6141 6.47504 28.7806 6.56653 28.9582 6.60716C30.2834 6.91028 30.8612 8.20658 30.2158 9.4252C30.0707 9.69929 29.9981 10.0191 29.8269 10.2715C29.7009 10.4573 29.4687 10.5676 29.2838 10.7115C29.1481 10.4788 28.9004 10.2443 28.904 10.0139C28.909 9.69469 29.1029 9.37855 29.2162 9.06125C29.3027 8.81924 29.4436 8.58242 29.4654 8.33455C29.5114 7.8102 29.4529 7.2693 28.7735 7.25951C28.1713 7.25084 27.9475 7.69066 27.9094 8.24838C27.8995 8.39271 27.9079 8.53835 27.7476 8.75703C27.5577 8.48536 27.3678 8.21368 27.1423 7.891C26.6782 8.33699 26.1679 8.76032 25.7571 9.26798C25.6508 9.39933 25.7705 9.87444 25.9317 10.0569C27.3315 11.6404 28.7608 13.1965 30.1895 14.7529C30.6166 15.2181 30.903 14.9597 30.982 14.484C31.3087 12.5162 32.3996 10.9457 33.439 9.33918C33.749 8.86006 33.9295 8.84577 34.2596 9.32808C34.7108 9.98741 35.2413 10.5899 35.6901 11.1564C35.4257 11.422 35.1249 11.6517 34.9136 11.9482C33.4348 14.0234 32.7929 16.5047 31.7843 18.808C31.507 19.4413 31.3692 20.138 31.1526 20.8006C31.1091 20.9334 30.9988 21.0434 30.8459 21.2755C29.9564 19.7955 30.5318 18.2072 30.1356 16.63C29.7803 16.8176 29.4328 16.9861 29.0994 17.1802C28.3705 17.6044 27.6627 18.069 26.9198 18.465C26.3046 18.7929 25.7997 18.5536 25.3586 18.0387C22.9973 15.2821 20.6245 12.5358 18.2539 9.78744C18.1877 9.71064 18.0872 9.66276 18.0281 9.58188C17.6724 9.09465 16.9727 8.53659 17.0457 8.12411C17.2024 7.23779 17.7497 6.42088 18.1658 5.5906C18.204 5.51435 18.4481 5.54626 18.6555 5.55468ZM27.3481 17.1989C28.0436 16.7197 28.7556 16.2624 29.4191 15.7405C29.536 15.6485 29.552 15.1962 29.4405 15.0632C28.7952 14.2936 28.0698 13.5944 27.4233 12.8257C25.7823 10.8747 23.8983 9.12704 22.6344 6.85786C22.3641 6.37253 22.0856 6.36552 21.6744 6.76923C21.225 7.21032 20.7024 7.58681 20.1698 7.92155C19.6029 8.27788 18.9868 8.55232 18.6529 8.72655C18.9351 9.14038 19.1445 9.63205 19.5036 9.94159C21.0067 11.2372 20.4788 11.5239 22.1254 10.0943C22.8726 10.8178 23.6484 11.5228 24.3539 12.2952C24.479 12.4321 24.4137 12.9515 24.2574 13.1158C23.9392 13.4501 23.499 13.6627 23.0586 13.9595C23.8763 14.9187 24.7163 15.7688 25.3913 16.7392C25.9281 17.5111 26.4537 17.7103 27.3481 17.1989ZM19.2544 7.42135C19.1693 7.05441 19.0841 6.68747 18.999 6.32054C18.8892 6.31611 18.7793 6.31169 18.6695 6.30727C18.4472 6.88684 18.2249 7.4664 18.0026 8.04596C18.1094 8.12904 18.2163 8.21211 18.3232 8.29518C18.6178 8.04076 18.9124 7.78634 19.2544 7.42135Z" fill="#243847"/>
<path d="M19.1453 37.09C19.2967 37.711 19.0641 37.9694 18.481 37.7265C17.8441 37.4612 17.2246 37.1418 16.6279 36.7916C16.4611 36.6937 16.4018 36.4038 16.2637 36.1474C15.7968 36.0931 15.1581 36.2357 14.9762 35.4528C14.9634 35.3978 14.5626 35.341 14.4296 35.4268C13.2923 36.1615 12.1454 36.8874 11.0625 37.7011C10.3263 38.2543 9.65009 38.3576 9.06727 37.7233C9.32337 37.5803 9.56457 37.4592 9.79269 37.3162C11.9664 35.9538 14.1433 34.5964 16.3041 33.2126C16.6197 33.0105 16.8431 32.6628 17.1299 32.4068C17.9677 31.6591 18.8497 31.0945 20.0627 31.1837C20.4373 31.2112 20.833 30.7135 21.2458 30.5142C21.4628 30.4095 21.7374 30.4299 21.986 30.3937C21.8863 30.6285 21.8476 30.943 21.6745 31.082C21.2661 31.4099 20.7936 31.6542 20.347 31.9323C20.3508 32.009 20.3546 32.0856 20.3584 32.1623C20.6535 32.227 20.9464 32.3334 21.2439 32.3494C23.1741 32.4533 25.1049 32.5534 27.0366 32.6169C27.5249 32.6329 27.6443 32.8292 27.6327 33.2847C27.591 34.912 27.675 36.5507 27.5108 38.1636C27.4197 39.0588 26.9306 39.9115 26.5599 40.955C25.0434 39.8126 23.6429 38.7869 22.2863 37.7035C22.0894 37.5461 22.1029 37.1125 21.9571 36.5807C21.7817 36.6124 21.4158 36.6589 21.0599 36.7475C20.5286 36.8799 20.0045 37.042 19.4297 37.0914C18.9776 36.5536 18.5733 36.1159 18.1463 35.6538C18.4873 34.8305 18.1136 34.4072 16.7425 34.3211C17.2564 35.0993 17.7243 35.8101 18.1971 36.5175C18.2216 36.5541 18.291 36.5564 18.3344 36.5832C18.6055 36.7508 18.8752 36.9208 19.1453 37.09Z" fill="#243847"/>
<path d="M22.0244 28.4619C21.0351 28.6727 20.0866 28.9119 19.1992 29.1656C18.1821 29.4563 17.3472 29.5445 16.3781 29.2414C16.1937 29.1837 15.8218 29.47 15.6527 29.6909C14.3644 31.3733 13.1078 33.0811 11.8326 34.7741C11.7021 34.9474 11.5144 35.0755 11.3532 35.2245C11.2898 35.1962 11.2263 35.1679 11.1629 35.1396C11.1893 34.9444 11.1573 34.7114 11.251 34.56C12.1918 33.0412 13.1767 31.5506 14.1025 30.0225C15.1206 28.342 16.2232 26.6936 17.0299 24.9085C17.5075 23.8517 18.2306 23.4171 19.1499 23.0839C19.8092 22.8449 20.4283 22.5967 21.0748 23.3111C21.6308 23.9255 22.3951 24.3458 23.0839 24.827C23.2124 24.9168 23.4222 24.9229 23.5899 24.9093C24.3611 24.8471 25.1295 24.7251 25.9012 24.7013C26.5125 24.6824 27.1315 24.7441 27.7374 24.8369C27.9162 24.8642 28.2082 25.127 28.2007 25.2681C28.088 27.3827 27.6012 29.3874 26.4045 31.1597C26.3486 31.2425 26.2894 31.3229 26.1728 31.4877C24.796 30.4736 23.4423 29.4764 22.0244 28.4619ZM20.0585 26.804C19.7063 26.4971 19.3936 26.0626 18.9873 25.9311C18.7431 25.852 18.3531 26.2451 18.0286 26.4261C18.0569 26.48 18.0853 26.5339 18.1136 26.5879C18.5512 26.5651 18.9888 26.5424 19.4264 26.5197C18.7398 27.2457 17.4876 27.3285 17.6934 28.7762C18.5232 28.2253 19.2734 27.7334 20.0127 27.2248C20.0701 27.1853 20.0507 27.0288 20.0585 26.804ZM22.7286 25.7924C22.2515 25.9931 22.1086 26.9329 22.4604 27.5554C22.8575 27.116 22.923 26.7892 22.7286 25.7924Z" fill="#243847"/>
<path d="M6.50299 27.4753C6.14077 26.0123 5.78419 24.5478 5.4141 23.0869C5.21099 22.2851 4.95601 21.4962 4.7772 20.6892C4.57565 19.7795 4.82975 19.496 5.84136 19.4023C6.7431 24.7358 7.90029 30.01 9.55714 35.1645C9.46766 35.2142 9.37818 35.264 9.2887 35.3138C9.16965 35.1305 9.00275 34.963 8.93884 34.7613C8.19304 32.408 7.46326 30.0493 6.72595 27.6931C6.70326 27.6206 6.64501 27.5597 6.54969 27.4815C6.49604 27.4695 6.50299 27.4753 6.50299 27.4753Z" fill="#243847"/>
<path d="M8.26167 24.6921C8.07628 22.6712 7.87611 20.7198 7.76523 18.7631C7.6909 17.4512 7.74757 17.4479 8.91297 16.4618C8.99093 16.767 9.10894 17.0169 9.11036 17.2674C9.12467 19.7808 9.10585 22.2944 9.12684 24.8077C9.136 25.9044 9.22029 27.0003 9.26094 28.0969C9.27587 28.4995 9.26335 28.9032 9.26335 29.3065C9.15434 29.3162 9.04534 29.326 8.93634 29.3357C8.71918 27.8102 8.50202 26.2847 8.26167 24.6921Z" fill="#243847"/>
<path d="M4.49719 28.7039C4.99648 29.5389 5.4609 30.3283 5.92532 31.1176C5.85581 31.1754 5.78631 31.2332 5.71681 31.291C5.51261 31.0693 5.29217 30.8611 5.10675 30.624C3.40788 28.4524 1.70072 26.2871 0.0479251 24.0792C-0.0837018 23.9034 0.0772915 23.3418 0.270866 23.1024C0.584285 22.7147 1.40059 22.7972 1.62645 23.2054C2.29214 24.4084 2.92107 25.633 3.55661 26.8533C3.8674 27.4501 4.16095 28.0563 4.49719 28.7039Z" fill="#243847"/>
<path d="M34.9922 42.0696C34.9922 41.5593 34.9922 41.1175 34.9922 40.6539C35.2433 40.6539 35.4303 40.6539 35.6466 40.6539C35.6466 42.5267 35.6466 44.3568 35.6466 46.4009C35.3109 46.1784 35.0737 46.0212 34.7819 45.8279C33.8232 46.5036 32.8165 46.5026 32.1043 45.7237C31.4127 44.9673 31.3559 43.5541 31.9845 42.7414C32.6631 41.8639 33.6586 41.8048 34.9922 42.6138C34.9922 42.4255 34.9922 42.2818 34.9922 42.0696ZM34.6308 43.0995C33.8972 42.5133 33.2512 42.4757 32.7067 42.9875C32.1606 43.5007 32.0847 44.5013 32.5428 45.148C32.9187 45.6785 33.684 45.8523 34.2602 45.538C34.8821 45.1987 35.139 44.3717 34.872 43.5453C34.8325 43.4234 34.7593 43.3129 34.6308 43.0995Z" fill="#243847"/>
<path d="M12.8293 44.518C12.8647 44.4037 12.9313 44.289 12.9304 44.1749C12.9232 43.2809 13.2492 42.5684 14.0581 42.1878C14.8613 41.8098 15.609 41.9917 16.1423 42.4971C16.4326 42.3147 16.6775 42.1609 17.05 41.927C17.05 43.49 17.05 44.8201 17.05 46.3495C16.7192 46.1846 16.4696 46.0602 16.1007 45.8763C15.6288 46.3248 14.8908 46.5093 14.0847 46.1597C13.3815 45.8548 13.0587 45.2453 12.8785 44.5085C12.8208 44.5133 12.8293 44.518 12.8293 44.518ZM13.9222 45.1432C14.5691 45.7631 15.2844 45.8583 15.842 45.3989C16.3809 44.9548 16.5288 43.9578 16.1522 43.3072C15.8271 42.7454 15.1587 42.4999 14.5538 42.72C13.8375 42.9807 13.5066 43.6974 13.7003 44.5906C13.733 44.741 13.8058 44.8823 13.9222 45.1432Z" fill="#243847"/>
<path d="M36.2613 45.4108C35.5899 43.8313 36.0694 42.4608 37.3721 42.0805C38.112 41.8644 38.7247 42.1194 39.1555 42.4936C39.4481 42.3058 39.687 42.1523 40.0506 41.9189C40.0506 43.4911 40.0506 44.8429 40.0506 46.367C39.7255 46.2016 39.48 46.0768 39.1197 45.8935C37.8595 46.5902 37.1815 46.5178 36.2613 45.4108ZM39.1043 45.1215C39.5489 44.1302 39.3865 43.2326 38.6873 42.8177C38.1045 42.472 37.3673 42.6163 36.9565 43.1565C36.5069 43.7477 36.5769 44.8219 37.0982 45.3304C37.6283 45.8476 38.3178 45.8085 39.1043 45.1215Z" fill="#243847"/>
<path d="M16.603 21.2461C15.3712 23.0509 14.1817 24.8173 12.9732 26.57C12.8701 26.7195 12.6406 26.7777 12.4698 26.8783C12.4689 26.6697 12.3913 26.4163 12.4787 26.2592C13.512 24.4014 14.5759 22.5615 15.6183 20.709C15.9996 20.0314 16.3397 19.3297 16.711 18.6461C16.7926 18.496 16.9269 18.3761 17.0384 18.2405C17.7572 18.9228 17.8304 19.3748 17.3661 20.0949C17.1266 20.4663 16.8823 20.8345 16.603 21.2461Z" fill="#243847"/>
<path d="M26.092 44.7182C26.1134 44.5977 26.1535 44.4771 26.1534 44.3566C26.1522 42.9911 26.8446 42.1195 28.0246 42.0104C29.091 41.9118 30.0462 42.6293 30.2266 43.6644C30.4417 44.8989 29.8303 45.9772 28.761 46.2492C27.5353 46.561 26.6044 45.99 26.1323 44.6886C26.0802 44.7085 26.092 44.7182 26.092 44.7182ZM28.6319 42.7109C27.9942 42.5088 27.4483 42.6701 27.0992 43.2454C26.7193 43.8717 26.7366 44.5488 27.1411 45.1658C27.4833 45.6878 28.0083 45.7742 28.569 45.6285C29.1575 45.4755 29.4588 45.0396 29.5312 44.4485C29.6199 43.7232 29.4635 43.0963 28.6319 42.7109Z" fill="#243847"/>
<path d="M19.8122 42.0411C21.0828 42.4599 21.5721 43.2049 21.4551 44.4641C21.3629 45.457 20.6616 46.1774 19.6668 46.3014C18.5035 46.4464 17.5839 45.754 17.4029 44.5968C17.1984 43.2888 17.8708 42.2435 19.0649 42.0376C19.288 41.9991 19.5222 42.0286 19.8122 42.0411ZM20.3566 43.0161C19.5949 42.5138 18.9821 42.5106 18.4858 43.0063C18.019 43.4726 17.9115 44.4245 18.2722 45.0481C18.6227 45.6541 19.168 45.7921 19.793 45.6254C20.7534 45.3691 21.0393 44.2231 20.3566 43.0161Z" fill="#243847"/>
<path d="M5.71389 44.7496C5.71079 43.8425 5.71079 43.0057 5.71079 42.1616C6.25534 41.9466 6.41829 42.1441 6.38978 42.6762C6.35893 43.2519 6.36295 43.8318 6.38954 44.408C6.42975 45.2793 6.81447 45.6907 7.53104 45.6822C8.24966 45.6737 8.6305 45.2472 8.65005 44.3862C8.66668 43.6537 8.65348 42.9205 8.65348 42.1352C8.89732 42.1352 9.10898 42.1352 9.34972 42.1352C9.34972 43.5049 9.34972 44.8347 9.34972 46.3419C9.02531 46.2019 8.77453 46.0936 8.44035 45.9494C7.21668 46.758 6.07208 46.3423 5.71389 44.7496Z" fill="#243847"/>
<path d="M7.53804 37.1213C6.11029 37.4292 4.75355 37.8251 3.37038 37.9936C2.30237 38.1237 1.34129 37.5738 0.427491 37.0589C0.439036 36.9642 0.450582 36.8695 0.462126 36.7748C2.98326 36.6876 5.50439 36.6004 8.02553 36.5133C8.05457 36.6001 8.08362 36.687 8.11266 36.7739C7.941 36.8864 7.76934 36.9989 7.53804 37.1213Z" fill="#243847"/>
<path d="M26.0758 44.7022C26.0527 45.7671 25.719 46.1894 24.8015 46.3028C23.8137 46.4248 23.1783 46.0195 22.8874 44.8742C23.2625 45.0741 23.4944 45.2131 23.7386 45.3239C24.05 45.4651 24.3736 45.6847 24.6877 45.6775C24.9121 45.6724 25.1296 45.3497 25.3502 45.1688C25.1759 44.9752 25.0351 44.7115 24.8198 44.6033C24.4335 44.4092 23.9524 44.3844 23.6058 44.1449C23.3263 43.9516 23.0187 43.5401 23.0295 43.2367C23.0417 42.8929 23.3187 42.4389 23.6135 42.2477C24.5776 41.6224 25.7355 42.1438 26.0313 43.4877C25.6819 43.2913 25.4664 43.1748 25.2554 43.0504C25.0209 42.9122 24.7861 42.6465 24.5594 42.6552C24.2769 42.6661 24.0027 42.9008 23.7249 43.0389C23.9034 43.2791 24.0364 43.5923 24.2696 43.745C24.8134 44.1012 25.4055 44.3802 26.035 44.7044C26.092 44.7182 26.0802 44.7085 26.0758 44.7022Z" fill="#243847"/>
<path d="M12.8181 44.5091C12.8314 45.7672 12.5403 46.1881 11.5712 46.304C10.5811 46.4225 9.94666 46.013 9.66706 44.8701C10.0379 45.0711 10.2728 45.204 10.5126 45.327C10.777 45.4626 11.0625 45.7193 11.3084 45.6862C11.6049 45.6462 11.8694 45.357 12.1478 45.1757C11.9476 44.9717 11.7796 44.7026 11.54 44.5786C11.1561 44.3801 10.6936 44.3352 10.3201 44.1227C9.54916 43.6841 9.55927 42.7568 10.3032 42.2742C11.2877 41.6355 12.483 42.0985 12.8365 43.4991C12.4552 43.2731 12.2347 43.1241 11.999 43.0073C11.7143 42.8662 11.4178 42.6608 11.1245 42.6574C10.9141 42.6549 10.7004 42.9381 10.4881 43.0939C10.6407 43.3056 10.7499 43.5956 10.9541 43.714C11.523 44.0439 12.1314 44.3026 12.7768 44.5537C12.8293 44.518 12.8208 44.5133 12.8181 44.5091Z" fill="#243847"/>
<path d="M11.7 21.7375C12.0361 20.2771 12.1709 18.823 12.9541 17.3577C13.4343 18.1766 13.6717 18.8727 13.4877 19.5671C13.0496 21.2212 12.5164 22.8491 12.0069 24.4827C11.926 24.7424 11.7688 24.9771 11.5238 25.2034C11.061 24.0427 11.6349 22.9321 11.7 21.7375Z" fill="#243847"/>
<path d="M40.9691 45.0187C41.3714 45.6197 41.8462 45.8977 42.4989 45.6094C42.6557 45.5402 42.8337 45.318 42.842 45.1576C42.8499 45.0038 42.6835 44.7646 42.5344 44.6938C42.1895 44.53 41.8035 44.4598 41.4437 44.3251C40.91 44.1253 40.4496 43.8225 40.4878 43.1536C40.5276 42.4567 41.0251 42.1782 41.6113 42.0451C42.579 41.8253 43.2994 42.3007 43.5109 43.4823C43.1736 43.2909 42.9543 43.1698 42.738 43.0431C42.5046 42.9063 42.2683 42.6435 42.0438 42.6549C41.7572 42.6694 41.4813 42.9034 41.2008 43.0428C41.3862 43.282 41.5269 43.601 41.7673 43.7419C42.1377 43.9591 42.5994 44.0088 42.9812 44.2111C43.6881 44.5857 43.7549 45.453 43.1525 45.9703C42.2656 46.7319 40.7836 46.2734 40.4148 45.067C40.5865 45.0457 40.7479 45.0256 40.9691 45.0187Z" fill="#243847"/>
<path d="M5.47262 31.8128C5.91145 32.3566 6.31066 32.8617 6.70987 33.3668C6.66961 33.4254 6.62936 33.484 6.58911 33.5426C4.55518 32.0973 2.52126 30.6519 0.487328 29.2065C0.490498 29.1537 0.49367 29.1008 0.496841 29.048C0.783303 29.048 1.08027 28.9971 1.35447 29.0565C2.79872 29.3691 4.16102 29.8365 4.98478 31.2433C5.1005 31.4409 5.28197 31.5982 5.47262 31.8128Z" fill="#243847"/>
<path d="M4.95606 43.8743C4.38167 43.8782 3.87167 43.8782 3.30752 43.8782C3.30752 44.6944 3.30752 45.4482 3.30752 46.2203C3.0591 46.2203 2.86557 46.2203 2.65632 46.2203C2.65632 44.4622 2.65632 42.7366 2.65632 40.937C3.52998 40.937 4.37242 40.9178 5.21246 40.9552C5.35869 40.9617 5.49478 41.2071 5.63555 41.3421C5.59633 41.4013 5.55712 41.4604 5.51791 41.5196C4.80581 41.5196 4.09371 41.5196 3.34482 41.5196C3.34482 42.1167 3.34482 42.6551 3.34482 43.2486C3.91219 43.2486 4.46892 43.2486 5.13386 43.2486C5.08734 43.5037 5.0539 43.6871 4.95606 43.8743Z" fill="#243847"/>
<path d="M14.662 33.3033C14.2396 33.6543 13.8538 33.963 13.4679 34.2718C13.403 34.211 13.3381 34.1502 13.2732 34.0895C13.3565 33.9347 13.4061 33.7398 13.5285 33.6312C14.8542 32.4554 16.16 31.2517 17.5457 30.1542C17.9283 29.8513 18.5582 29.8758 19.0746 29.75C19.1138 29.8478 19.153 29.9456 19.1921 30.0433C17.6943 31.116 16.1964 32.1886 14.662 33.3033Z" fill="#243847"/>
<path d="M30.5459 43.4074C30.5459 42.4449 30.5459 41.5612 30.5459 40.6757C31.0183 40.5394 31.292 40.5478 31.286 41.1162C31.2685 42.7879 31.2798 44.4599 31.2798 46.1961C31.0447 46.2206 30.835 46.2424 30.5459 46.2725C30.5459 45.3049 30.5459 44.3956 30.5459 43.4074Z" fill="#243847"/>
<path d="M19.1925 22.37C19.6528 21.3379 20.1455 20.3553 20.6375 19.3737C21.5335 19.8288 21.5879 20.0467 21.054 20.7623C20.6841 21.2581 20.3241 21.762 19.9451 22.2504C19.7593 22.4898 19.5645 22.8126 19.1925 22.37Z" fill="#243847"/>
<path d="M14.3999 40.9443C14.5437 40.8893 14.646 40.844 14.7421 40.8551C15.2544 40.9143 15.7651 40.9876 16.3024 41.0595C16.1548 41.5787 15.8421 41.824 15.1654 41.5464C14.8643 41.4229 14.4747 41.5256 14.0471 41.5256C14.1291 41.3806 14.2423 41.1803 14.3999 40.9443Z" fill="#243847"/>
<path d="M10.5258 48C10.3953 47.9769 10.3273 47.9586 10.2593 47.9403C10.2807 47.9037 10.3021 47.867 10.3235 47.8304C10.4118 47.8885 10.5001 47.9466 10.5258 48Z" fill="#243847"/>
</g>
</svg>
