<svg width="88" height="10" viewBox="0 0 88 10" fill="none" xmlns="http://www.w3.org/2000/svg">
<path d="M86.834 0.244011C86.828 0.302011 86.814 0.42201 86.802 0.51001C86.778 0.67801 86.756 1.40602 86.752 2.25002C86.746 3.46802 86.804 8.73201 86.824 8.78601C86.836 8.81601 86.862 8.85001 86.884 8.86201C86.928 8.88601 86.952 8.86402 87.02 8.73602C87.058 8.66402 87.06 8.60601 87.072 7.18601C87.084 5.60201 87.036 1.81801 87 1.35001C86.988 1.20601 86.964 0.986008 86.946 0.860008C86.928 0.734008 86.916 0.572015 86.918 0.500015C86.924 0.310015 86.902 0.140015 86.87 0.140015C86.852 0.140015 86.84 0.176011 86.834 0.244011Z" fill="black"/>
<path d="M82.792 0.274017C82.758 0.530017 82.732 1.92002 82.736 3.38002C82.74 5.48802 82.776 8.75402 82.796 8.83002C82.832 8.96002 82.99 8.88202 83.036 8.71402C83.058 8.63002 83.028 2.95402 83 2.13802C82.988 1.79002 82.966 1.35802 82.95 1.17802C82.934 0.998017 82.92 0.732019 82.92 0.590019C82.918 0.318019 82.892 0.194021 82.838 0.184021C82.812 0.180021 82.802 0.200017 82.792 0.274017Z" fill="black"/>
<path d="M73.546 0.274017C72.728 0.280017 72.58 0.284014 72.58 0.308014C72.58 0.350014 72.466 0.358013 71.61 0.380013C70.92 0.398013 70.562 0.424019 70.21 0.480019C70.144 0.490019 70 0.500015 69.89 0.500015L69.69 0.502014L69.93 0.626015L70.48 0.632019C70.782 0.636019 71.112 0.646013 71.21 0.656013C71.53 0.686013 77.906 0.624019 77.986 0.590019C78.006 0.582019 78.03 0.558018 78.042 0.536018C78.06 0.504018 78.054 0.486014 78.016 0.446014C77.912 0.334014 77.968 0.338019 76.54 0.340019C75.814 0.340019 75.198 0.336018 75.17 0.328018C75.142 0.322018 75.12 0.304017 75.12 0.288017C75.12 0.266017 75.064 0.260015 74.816 0.264015C74.648 0.268015 74.076 0.272017 73.546 0.274017Z" fill="black"/>
<path d="M81.464 0.37001C81.422 0.48001 81.418 0.536008 81.406 1.11001C81.388 1.91801 81.394 4.39001 81.42 6.85801C81.438 8.59001 81.444 8.83201 81.472 8.87401C81.516 8.94201 81.572 8.92601 81.648 8.82201L81.71 8.73602L81.706 7.09201C81.702 6.19001 81.692 4.56201 81.68 3.47601C81.662 1.78601 81.652 1.45401 81.622 1.17001C81.6 0.986013 81.574 0.826011 81.562 0.814011C81.548 0.800011 81.54 0.702015 81.538 0.570015C81.536 0.450015 81.53 0.328011 81.522 0.300011C81.51 0.256011 81.504 0.26401 81.464 0.37001Z" fill="black"/>
<path d="M85.476 0.43602L85.424 0.590019L85.416 1.87002C85.412 2.57402 85.42 4.41602 85.434 5.96202C85.458 8.93402 85.454 8.84202 85.546 8.87202C85.592 8.88602 85.634 8.85202 85.684 8.75402C85.722 8.67602 85.724 8.64002 85.722 6.49202C85.72 3.44602 85.678 1.40002 85.61 0.990021C85.594 0.890021 85.58 0.710019 85.58 0.590019C85.58 0.374019 85.568 0.280022 85.542 0.280022C85.536 0.280022 85.506 0.35002 85.476 0.43602Z" fill="black"/>
<path d="M69.52 0.384018C69.52 0.420018 69.506 0.494018 69.488 0.550018C69.462 0.630018 69.454 0.764012 69.448 1.20001C69.446 1.50201 69.434 1.84401 69.424 1.96001C69.414 2.08001 69.412 2.52402 69.422 3.00002C69.43 3.45602 69.442 4.87402 69.45 6.15002C69.456 7.42602 69.466 8.58002 69.472 8.71602C69.484 8.94002 69.488 8.96801 69.532 9.01601L69.58 9.07001L69.638 9.00401C69.668 8.96801 69.704 8.90401 69.718 8.86201C69.772 8.67801 69.722 2.02001 69.66 1.39001C69.648 1.26801 69.626 1.08002 69.61 0.972015C69.594 0.862015 69.58 0.672013 69.58 0.546013C69.58 0.358013 69.574 0.320015 69.55 0.320015C69.53 0.320015 69.52 0.340018 69.52 0.384018Z" fill="black"/>
<path d="M80.154 0.362015C80.136 0.390015 80.114 0.444018 80.108 0.482018C80.1 0.518018 80.082 0.572015 80.066 0.598015C80.04 0.640015 80.038 0.886016 80.048 2.56802C80.086 8.12802 80.094 8.81001 80.114 8.85001C80.126 8.87201 80.154 8.90602 80.174 8.92602C80.212 8.95802 80.214 8.95801 80.254 8.90401C80.372 8.74401 80.364 8.92202 80.362 6.54202C80.36 3.38601 80.322 1.55602 80.246 1.00002C80.23 0.874015 80.216 0.712015 80.218 0.640015C80.218 0.568015 80.212 0.464019 80.204 0.410019L80.188 0.310013L80.154 0.362015Z" fill="black"/>
<path d="M78.798 0.426018C78.734 0.586018 78.722 0.752019 78.708 1.52002C78.692 2.47602 78.69 2.16402 78.716 4.37002C78.728 5.40402 78.738 6.82402 78.74 7.52402C78.74 8.28203 78.748 8.81802 78.76 8.84802C78.77 8.87602 78.802 8.91402 78.83 8.93202C78.878 8.96402 78.884 8.96402 78.912 8.92802C78.928 8.90802 78.96 8.85402 78.98 8.81002C79.018 8.73202 79.02 8.66202 79.02 6.81002C79.02 4.28202 78.972 1.57802 78.918 1.17002C78.906 1.08202 78.89 0.862022 78.884 0.682022C78.876 0.492022 78.862 0.350016 78.85 0.346016C78.84 0.344016 78.816 0.378018 78.798 0.426018Z" fill="black"/>
<path d="M65.454 0.544022C65.424 0.698022 65.42 0.816019 65.424 1.23002C65.428 1.50402 65.42 1.84602 65.406 1.99002C65.39 2.18402 65.388 2.77202 65.402 4.30002C65.436 8.07402 65.452 9.01602 65.48 9.05002C65.514 9.09002 65.586 9.08802 65.624 9.04402C65.722 8.93402 65.72 8.97202 65.72 7.56602C65.72 5.74202 65.684 2.49802 65.66 1.98002C65.648 1.74402 65.63 1.44602 65.618 1.32002C65.606 1.19402 65.594 0.954016 65.592 0.790016C65.584 0.336016 65.518 0.216022 65.454 0.544022Z" fill="black"/>
<path d="M56.234 0.460014C55.414 0.468014 55.256 0.474009 55.24 0.498009C55.22 0.532009 54.826 0.556014 54.246 0.558014C53.818 0.560014 53.37 0.590014 53.024 0.642014C52.878 0.662014 52.666 0.680014 52.554 0.682014H52.35L52.48 0.744011L52.61 0.804008L53.16 0.812012C53.462 0.816012 53.786 0.828014 53.88 0.836014C54.052 0.854014 57.422 0.834008 59.492 0.804008C60.5 0.790008 60.622 0.784013 60.668 0.754013C60.738 0.706013 60.734 0.678011 60.64 0.59201L60.56 0.520012H59.212C58.47 0.520012 57.85 0.514011 57.832 0.508011C57.814 0.502011 57.8 0.48401 57.8 0.46801C57.8 0.44601 57.746 0.440008 57.506 0.444008C57.342 0.448008 56.77 0.454014 56.234 0.460014Z" fill="black"/>
<path d="M84.124 0.544014C84.068 0.808014 84.06 2.64401 84.1 6.73001L84.122 8.81001L84.17 8.86002C84.232 8.92202 84.268 8.90402 84.34 8.77802L84.39 8.69001L84.384 6.88001C84.38 4.98801 84.35 2.65801 84.32 1.67001C84.306 1.22201 84.292 1.03601 84.258 0.850014C84.234 0.718014 84.21 0.574013 84.202 0.532013C84.184 0.418013 84.15 0.424014 84.124 0.544014Z" fill="black"/>
<path d="M64.132 0.558014C64.104 0.640014 64.096 0.748017 64.088 1.23202C64.084 1.55002 64.072 1.86802 64.062 1.94002C64.046 2.06402 64.062 4.59002 64.098 7.62402C64.112 8.93002 64.116 9.02201 64.15 9.06001C64.17 9.08201 64.198 9.10001 64.212 9.10001C64.254 9.10001 64.358 8.96402 64.372 8.88602C64.38 8.84402 64.378 7.70201 64.37 6.35001C64.36 4.99601 64.352 3.80002 64.352 3.69002C64.352 3.58002 64.346 3.06602 64.336 2.55002C64.322 1.58602 64.29 1.12402 64.23 0.980019C64.208 0.930019 64.202 0.850017 64.206 0.706017C64.21 0.464017 64.186 0.412014 64.132 0.558014Z" fill="black"/>
<path d="M68.19 0.484016C68.186 0.498016 68.16 0.56402 68.136 0.63002L68.09 0.750023L68.094 3.04002C68.098 4.30002 68.106 6.15202 68.114 7.15602L68.13 8.98402L68.188 9.03202C68.24 9.07802 68.248 9.08002 68.28 9.05002C68.3 9.03202 68.336 8.97002 68.36 8.91402L68.404 8.81202L68.394 6.24002C68.38 3.44802 68.342 1.57402 68.288 1.23002C68.272 1.12002 68.252 0.902019 68.246 0.744019C68.236 0.494019 68.218 0.406016 68.19 0.484016Z" fill="black"/>
<path d="M52.174 0.604019C52.168 0.662019 52.154 0.782018 52.142 0.870018C52.118 1.03802 52.096 1.77002 52.092 2.59002C52.086 3.76802 52.144 9.09202 52.164 9.14602C52.176 9.17602 52.204 9.21202 52.226 9.22402C52.26 9.24202 52.272 9.23602 52.302 9.19802C52.404 9.06602 52.4 9.12602 52.412 7.52602C52.424 5.93002 52.376 2.15602 52.34 1.70002C52.328 1.56202 52.304 1.34602 52.286 1.22002C52.268 1.09402 52.256 0.932016 52.258 0.860016C52.264 0.670016 52.242 0.500015 52.21 0.500015C52.192 0.500015 52.18 0.536019 52.174 0.604019Z" fill="black"/>
<path d="M62.8 0.592018C62.778 0.642018 62.76 0.694015 62.76 0.708015C62.76 0.722015 62.748 0.760015 62.734 0.792015C62.706 0.852015 62.706 0.812018 62.752 6.96602C62.766 8.90002 62.768 9.00402 62.804 9.06202C62.854 9.14402 62.896 9.13202 62.97 9.01202L63.03 8.91202L63.028 6.41202C63.024 3.17202 62.992 1.70201 62.908 1.10201C62.892 0.986013 62.88 0.804014 62.88 0.696014C62.88 0.476014 62.86 0.450018 62.8 0.592018Z" fill="black"/>
<path d="M61.46 0.614014C61.414 0.708014 61.412 0.730016 61.392 1.47002C61.366 2.46202 61.366 2.52202 61.396 5.75002C61.408 7.26802 61.42 8.63002 61.42 8.77602C61.42 9.03402 61.422 9.04402 61.47 9.09202C61.498 9.12002 61.532 9.14002 61.546 9.13402C61.56 9.13002 61.598 9.08401 61.63 9.03001L61.69 8.93401L61.696 7.55202C61.706 5.41802 61.644 1.87602 61.588 1.36002C61.57 1.19002 61.554 0.978015 61.552 0.890015C61.546 0.594015 61.54 0.52002 61.524 0.52002C61.516 0.52002 61.486 0.562014 61.46 0.614014Z" fill="black"/>
<path d="M48.132 0.634018C48.098 0.888018 48.072 2.29402 48.074 3.70002C48.08 5.60802 48.116 9.08602 48.132 9.17602C48.156 9.29802 48.266 9.28801 48.34 9.15601L48.39 9.07001L48.384 7.21001C48.372 3.62401 48.344 2.06802 48.28 1.40202C48.268 1.28602 48.26 1.08002 48.258 0.942017C48.258 0.678017 48.232 0.554014 48.178 0.544014C48.152 0.540014 48.142 0.560018 48.132 0.634018Z" fill="black"/>
<path d="M38.924 0.640015C38.096 0.648015 37.936 0.654009 37.92 0.678009C37.9 0.712009 37.508 0.736014 36.936 0.738014C36.502 0.740014 36.06 0.770014 35.69 0.822014C35.536 0.842014 35.326 0.860008 35.22 0.860008L35.03 0.862015L35.27 0.986008L35.81 0.992012C36.108 0.996012 36.44 1.00601 36.55 1.01801C36.664 1.03001 37.018 1.03402 37.37 1.02802C37.712 1.02402 39.138 1.01001 40.54 0.998009C41.942 0.986009 43.148 0.970013 43.218 0.962013C43.308 0.952013 43.354 0.936011 43.374 0.910011C43.41 0.858011 43.402 0.842008 43.302 0.764008L43.216 0.700012H41.884C41.15 0.700012 40.53 0.694011 40.506 0.688011C40.48 0.680011 40.46 0.66201 40.46 0.64801C40.46 0.62601 40.408 0.620008 40.186 0.624008C40.034 0.628008 39.466 0.634015 38.924 0.640015Z" fill="black"/>
<path d="M46.806 0.736008C46.764 0.842008 46.76 0.896009 46.746 1.47001C46.73 2.28201 46.734 4.61001 46.76 7.14801C46.778 8.93201 46.784 9.19402 46.812 9.23602C46.856 9.30402 46.918 9.28601 46.99 9.18401L47.05 9.09601L47.046 7.43401C47.044 6.51801 47.032 4.89201 47.02 3.81801C47.002 2.14601 46.994 1.81801 46.962 1.53001C46.94 1.34601 46.914 1.18601 46.902 1.17401C46.888 1.16001 46.88 1.06001 46.878 0.920013C46.876 0.620013 46.862 0.586008 46.806 0.736008Z" fill="black"/>
<path d="M66.79 0.694016C66.774 0.788015 66.734 2.07402 66.732 2.61002C66.728 3.33002 66.782 8.88802 66.792 8.95602C66.798 8.99402 66.822 9.03202 66.852 9.05202C66.898 9.08402 66.904 9.08202 66.942 9.04802C66.966 9.02602 67.002 8.97402 67.026 8.93002C67.066 8.85002 67.066 8.83802 67.054 6.53002C67.042 4.08602 67.014 2.18402 66.98 1.55002C66.966 1.29602 66.944 1.09002 66.912 0.932022C66.884 0.800022 66.862 0.688022 66.864 0.682022C66.874 0.590022 66.808 0.602015 66.79 0.694016Z" fill="black"/>
<path d="M50.816 0.796021L50.764 0.95002L50.756 2.21002C50.752 2.90202 50.76 4.74402 50.774 6.30202C50.798 9.29202 50.794 9.20402 50.886 9.23202C50.932 9.24602 50.974 9.21202 51.024 9.11402C51.064 9.03402 51.064 9.00602 51.062 6.83202C51.06 3.75002 51.02 1.76602 50.95 1.33002C50.934 1.23002 50.922 1.03602 50.92 0.89402C50.92 0.58802 50.896 0.56602 50.816 0.796021Z" fill="black"/>
<path d="M34.86 0.746017C34.86 0.784017 34.846 0.858018 34.828 0.912018C34.804 0.988018 34.796 1.13001 34.788 1.57001C34.784 1.87802 34.774 2.22402 34.764 2.34002C34.756 2.45602 34.756 2.95401 34.764 3.45001C34.774 3.94401 34.788 5.46401 34.796 6.82401C34.81 9.28801 34.812 9.29802 34.852 9.35402C34.876 9.38402 34.906 9.41002 34.922 9.41002C34.936 9.41002 34.976 9.37001 35.01 9.32401L35.07 9.23602L35.076 7.53402C35.084 5.71602 35.052 2.63602 35.018 2.06402C35.008 1.87402 34.984 1.61202 34.966 1.48402C34.948 1.35602 34.93 1.12201 34.926 0.964012C34.918 0.738012 34.91 0.680016 34.888 0.680016C34.87 0.680016 34.86 0.702017 34.86 0.746017Z" fill="black"/>
<path d="M45.496 0.720009C45.478 0.748009 45.456 0.806014 45.448 0.850014C45.442 0.894014 45.422 0.946012 45.406 0.964012C45.38 0.992012 45.378 1.24601 45.388 2.86401C45.422 8.13001 45.434 9.17201 45.454 9.21001C45.466 9.23201 45.494 9.26601 45.516 9.28601C45.556 9.32201 45.558 9.32001 45.624 9.22601L45.69 9.13001L45.702 8.39001C45.718 7.51201 45.69 3.61001 45.66 2.60401C45.64 1.89801 45.62 1.57001 45.578 1.27001C45.564 1.18201 45.556 1.05601 45.556 0.990013C45.558 0.924013 45.552 0.824012 45.544 0.770012L45.528 0.670013L45.496 0.720009Z" fill="black"/>
<path d="M44.148 0.764015C44.058 0.938015 44.056 0.976013 44.058 3.06001C44.06 4.14401 44.068 5.97202 44.076 7.12402L44.09 9.22002L44.144 9.27201C44.174 9.30201 44.21 9.32001 44.226 9.31401C44.242 9.30801 44.278 9.25601 44.308 9.19801L44.36 9.09201V7.16201C44.36 4.40801 44.314 1.99201 44.25 1.44001C44.234 1.30201 44.22 1.08402 44.22 0.956017C44.22 0.828017 44.212 0.718014 44.2 0.710014C44.19 0.704014 44.166 0.728015 44.148 0.764015Z" fill="black"/>
<path d="M30.794 0.904022C30.764 1.05802 30.76 1.17602 30.764 1.59002C30.768 1.86402 30.76 2.21202 30.746 2.36002C30.73 2.55802 30.728 3.15802 30.742 4.61002C30.778 8.39802 30.792 9.37802 30.82 9.41002C30.854 9.45002 30.926 9.44802 30.964 9.40402C31.062 9.29202 31.06 9.33802 31.06 7.86602C31.06 6.00602 31.026 2.82402 31 2.32002C30.988 2.09402 30.97 1.80202 30.958 1.67002C30.946 1.53802 30.934 1.30002 30.932 1.14002C30.924 0.696022 30.856 0.580022 30.794 0.904022Z" fill="black"/>
<path d="M21.604 0.820015C20.744 0.828015 20.596 0.834016 20.58 0.860016C20.558 0.894016 20.206 0.916015 19.61 0.918015C19.164 0.922015 18.736 0.950015 18.37 1.00002C18.216 1.02202 18 1.04002 17.89 1.04202H17.69L17.82 1.10402L17.95 1.16402L18.49 1.17202C18.788 1.17602 19.106 1.18801 19.2 1.19601C19.38 1.21401 25.414 1.17202 25.78 1.15002C25.93 1.14202 25.998 1.13002 26.024 1.10602C26.076 1.05802 26.068 1.03202 25.98 0.952019L25.9 0.88002H24.552C23.81 0.88002 23.19 0.874019 23.172 0.868019C23.154 0.862019 23.14 0.844018 23.14 0.828018C23.14 0.806018 23.09 0.800016 22.876 0.804016C22.73 0.806016 22.158 0.814015 21.604 0.820015Z" fill="black"/>
<path d="M49.47 0.864014C49.462 0.900014 49.446 1.20401 49.434 1.54001C49.408 2.22601 49.41 3.89401 49.44 7.04001L49.462 9.17001L49.51 9.22001C49.572 9.28201 49.608 9.26402 49.68 9.13802L49.73 9.05001L49.726 7.24001C49.72 5.34801 49.69 2.94002 49.66 2.00002C49.646 1.58602 49.632 1.39001 49.598 1.21001C49.574 1.07801 49.55 0.934014 49.542 0.892014C49.526 0.792014 49.49 0.778014 49.47 0.864014Z" fill="black"/>
<path d="M29.472 0.918015C29.444 1.00001 29.436 1.10802 29.428 1.59202C29.424 1.91002 29.412 2.23801 29.404 2.32001C29.388 2.46601 29.402 5.02002 29.438 7.93602C29.454 9.28402 29.456 9.38401 29.49 9.42001C29.51 9.44201 29.538 9.46001 29.552 9.46001C29.594 9.46001 29.698 9.32402 29.712 9.24602C29.72 9.20402 29.718 8.05402 29.71 6.69002C29.7 5.32602 29.692 4.13402 29.692 4.04002C29.692 3.94602 29.686 3.43402 29.676 2.90002C29.662 1.89602 29.632 1.49001 29.566 1.33601C29.542 1.28001 29.538 1.23002 29.548 1.12402C29.562 0.988016 29.546 0.820015 29.522 0.820015C29.514 0.820015 29.492 0.864015 29.472 0.918015Z" fill="black"/>
<path d="M33.534 0.834015C33.53 0.844015 33.504 0.912013 33.478 0.990013L33.43 1.13001L33.434 3.32001C33.438 4.52402 33.446 6.37202 33.454 7.42602L33.47 9.34402L33.528 9.39202C33.598 9.45202 33.626 9.43602 33.692 9.29002L33.74 9.19002V7.21602C33.74 4.40402 33.69 1.99002 33.62 1.51002C33.598 1.35602 33.58 1.13802 33.58 1.02602C33.58 0.846016 33.564 0.782015 33.534 0.834015Z" fill="black"/>
<path d="M17.514 0.96402C17.508 1.02202 17.494 1.15002 17.482 1.25002C17.458 1.43602 17.436 2.16202 17.432 2.94002C17.426 4.01402 17.484 9.41602 17.502 9.48402C17.512 9.52602 17.54 9.57002 17.564 9.58202C17.6 9.60202 17.612 9.59802 17.644 9.55802C17.744 9.43402 17.74 9.47802 17.752 7.85402C17.764 6.24202 17.716 2.49602 17.68 2.05002C17.668 1.91802 17.644 1.70602 17.628 1.58002C17.61 1.45402 17.596 1.28802 17.598 1.21202C17.6 1.13402 17.596 1.02402 17.588 0.966019C17.57 0.824019 17.528 0.82402 17.514 0.96402Z" fill="black"/>
<path d="M28.14 0.952019C28.118 1.00202 28.1 1.05402 28.1 1.06802C28.1 1.08202 28.088 1.12002 28.074 1.15202C28.046 1.21202 28.046 1.06602 28.092 7.28602C28.106 9.25802 28.108 9.36402 28.144 9.42202C28.192 9.50202 28.234 9.49202 28.31 9.38002L28.37 9.29002L28.368 6.76002C28.366 3.49602 28.334 2.07402 28.248 1.46202C28.232 1.34602 28.22 1.16402 28.22 1.05602C28.22 0.836015 28.2 0.810019 28.14 0.952019Z" fill="black"/>
<path d="M26.8 0.974014C26.754 1.06801 26.752 1.09202 26.734 1.83002C26.706 2.82202 26.706 2.87202 26.736 6.02002C26.748 7.50002 26.76 8.86602 26.76 9.05602C26.76 9.40001 26.76 9.40202 26.81 9.45202C26.838 9.48002 26.872 9.50002 26.886 9.49402C26.9 9.49002 26.938 9.44401 26.97 9.39001L27.03 9.29401L27.036 7.86201C27.046 5.71201 26.984 2.20002 26.928 1.70002C26.91 1.54002 26.896 1.37402 26.896 1.33002C26.898 1.16402 26.876 0.880013 26.862 0.880013C26.854 0.880013 26.826 0.922014 26.8 0.974014Z" fill="black"/>
<path d="M13.472 1.00401C13.438 1.29001 13.412 2.67801 13.414 4.02001C13.42 5.90401 13.456 9.44802 13.472 9.53602C13.498 9.67002 13.614 9.64602 13.688 9.49402L13.738 9.39001L13.72 6.40002C13.702 3.40002 13.682 2.47202 13.63 1.87202C13.614 1.69402 13.6 1.43802 13.6 1.30002C13.598 1.03802 13.572 0.914015 13.518 0.904015C13.49 0.900015 13.482 0.920013 13.472 1.00401Z" fill="black"/>
<path d="M4.294 1.00002C3.426 1.00802 3.276 1.01402 3.26 1.04002C3.238 1.07402 2.884 1.09601 2.3 1.09801C1.852 1.10001 1.382 1.13202 1.04 1.18002C0.891995 1.20202 0.679995 1.22002 0.569995 1.22002L0.369995 1.22202L0.609995 1.34602L1.16 1.35202C1.462 1.35602 1.782 1.36601 1.87 1.37601C2.044 1.39601 8.216 1.35202 8.496 1.33002C8.624 1.32002 8.674 1.30602 8.704 1.27602C8.754 1.22602 8.746 1.20402 8.642 1.12402L8.556 1.06002H7.224C6.49 1.06002 5.87 1.05402 5.846 1.04802C5.82 1.04002 5.8 1.02202 5.8 1.00802C5.8 0.986018 5.752 0.980016 5.556 0.984016C5.42 0.986016 4.852 0.994015 4.294 1.00002Z" fill="black"/>
<path d="M12.144 1.09602C12.102 1.20802 12.1 1.24002 12.1 1.77202C12.1 2.10602 12.09 2.37402 12.076 2.44002C12.06 2.52202 12.062 3.43801 12.086 6.04801C12.116 9.16601 12.122 9.55202 12.15 9.59402C12.196 9.66402 12.258 9.64601 12.33 9.54401L12.39 9.45602L12.386 7.76402C12.384 6.83202 12.372 5.20002 12.36 4.13802C12.342 2.49002 12.334 2.16001 12.302 1.88201C12.282 1.70201 12.254 1.54601 12.242 1.53401C12.228 1.52001 12.22 1.42201 12.218 1.28001C12.216 0.980014 12.204 0.946016 12.144 1.09602Z" fill="black"/>
<path d="M32.13 1.05402C32.114 1.14402 32.074 2.44002 32.072 2.96002C32.07 3.16402 32.082 4.67602 32.098 6.32002C32.128 9.51402 32.122 9.40002 32.222 9.43002C32.256 9.44202 32.276 9.43202 32.302 9.39802C32.404 9.26602 32.4 9.33402 32.4 7.68602C32.4 5.32202 32.344 1.93002 32.3 1.58002C32.288 1.48602 32.264 1.34202 32.246 1.26002C32.228 1.17802 32.212 1.08802 32.208 1.06002C32.206 1.03202 32.202 1.00402 32.202 0.994019C32.2 0.986019 32.188 0.980019 32.172 0.980019C32.156 0.980019 32.138 1.01002 32.13 1.05402Z" fill="black"/>
<path d="M16.156 1.16401L16.102 1.33001L16.096 2.56001C16.086 4.58401 16.132 9.49001 16.162 9.53601C16.176 9.56001 16.208 9.58601 16.232 9.59801C16.27 9.61401 16.282 9.60802 16.326 9.54202C16.354 9.50002 16.384 9.43601 16.394 9.39801C16.416 9.30801 16.39 4.04201 16.362 2.96001C16.348 2.41401 16.328 2.02001 16.308 1.86001C16.29 1.72201 16.27 1.47201 16.266 1.30401C16.254 0.946008 16.234 0.920009 16.156 1.16401Z" fill="black"/>
<path d="M10.836 1.08001C10.818 1.10801 10.796 1.16601 10.788 1.21001C10.782 1.25401 10.762 1.30401 10.746 1.32201C10.722 1.35201 10.72 1.61401 10.73 3.17201C10.76 8.13601 10.774 9.53201 10.796 9.57201C10.806 9.59201 10.834 9.62601 10.856 9.64601C10.896 9.68201 10.898 9.68001 10.964 9.58601L11.03 9.49001L11.044 8.85001C11.07 7.67401 11.024 3.19801 10.98 2.34001C10.968 2.13601 10.946 1.85801 10.928 1.72001C10.91 1.58201 10.896 1.40601 10.896 1.33001C10.898 1.25201 10.892 1.15401 10.884 1.11001L10.868 1.03001L10.836 1.08001Z" fill="black"/>
<path d="M9.488 1.12402C9.398 1.29802 9.396 1.34002 9.398 3.36002C9.4 4.41002 9.408 6.24001 9.416 7.42401L9.43 9.58001L9.484 9.63201C9.514 9.66201 9.55 9.68001 9.566 9.67401C9.582 9.66801 9.618 9.61601 9.648 9.55801L9.7 9.45201V7.51202C9.7 4.71602 9.654 2.32202 9.59 1.79002C9.574 1.65802 9.56 1.44401 9.56 1.31601C9.56 1.18801 9.552 1.07801 9.54 1.07001C9.53 1.06401 9.506 1.08802 9.488 1.12402Z" fill="black"/>
<path d="M14.81 1.22401C14.802 1.26001 14.792 1.43001 14.788 1.60001C14.784 1.77001 14.772 2.13401 14.76 2.41001C14.742 2.79401 14.744 3.67802 14.768 6.22002L14.8 9.52802L14.844 9.57401C14.902 9.63601 14.928 9.63202 14.986 9.55402C15.09 9.41802 15.088 9.47001 15.072 7.42001C15.058 5.25201 15.028 3.20002 15 2.36002C14.986 1.93002 14.97 1.73401 14.938 1.56001C14.914 1.43401 14.89 1.29401 14.882 1.25201C14.866 1.15201 14.83 1.13801 14.81 1.22401Z" fill="black"/>
<path d="M72.97 1.74201C72.256 1.75601 71.308 1.78401 70.81 1.80801C70.69 1.81201 70.514 1.83201 70.42 1.84801C70.326 1.86601 70.142 1.88001 70.006 1.88001C69.868 1.88001 69.76 1.88802 69.76 1.89802C69.76 1.90802 69.798 1.93602 69.846 1.95802C69.958 2.01002 70.28 2.04001 70.79 2.04401C72.17 2.05001 73.334 2.04801 75.51 2.03201L77.97 2.01402L78.026 1.95802L78.082 1.90002L78.01 1.82601C77.946 1.76001 77.924 1.75002 77.804 1.73602C77.634 1.71802 73.978 1.72201 72.97 1.74201Z" fill="black"/>
<path d="M55.66 1.92201C54.928 1.93601 53.938 1.96601 53.48 1.98801C53.364 1.99401 53.194 2.01202 53.1 2.02802C53.006 2.04602 52.82 2.06001 52.686 2.06001C52.552 2.06001 52.438 2.06802 52.43 2.07802C52.408 2.11602 52.594 2.17401 52.82 2.19601C52.946 2.21001 53.23 2.22201 53.45 2.22401C54.788 2.23001 56.03 2.22801 58.194 2.21201L60.638 2.19402L60.748 2.08002L60.664 1.99402L60.58 1.91001L58.504 1.90801C57.364 1.90601 56.084 1.91201 55.66 1.92201Z" fill="black"/>
<path d="M38.36 2.10201C37.926 2.11001 37.296 2.12601 36.96 2.14001C36.624 2.15201 36.296 2.16001 36.23 2.16001C36.164 2.15801 35.99 2.17601 35.846 2.20001C35.688 2.22401 35.486 2.24001 35.342 2.24001C35.198 2.24001 35.1 2.24802 35.1 2.26002C35.1 2.27002 35.134 2.29602 35.176 2.31602C35.28 2.36802 35.628 2.40001 36.11 2.40401C37.57 2.41001 38.744 2.40801 40.88 2.39201L43.31 2.37402L43.366 2.31802L43.422 2.26002L43.35 2.18601C43.286 2.12001 43.264 2.11002 43.144 2.09602C42.974 2.07802 39.414 2.08201 38.36 2.10201Z" fill="black"/>
<path d="M21.05 2.28201C20.346 2.29401 19.468 2.32201 18.82 2.34801C18.704 2.35401 18.534 2.37202 18.44 2.38802C18.344 2.40602 18.162 2.42001 18.026 2.42001C17.892 2.42001 17.778 2.42801 17.77 2.43801C17.748 2.47601 17.934 2.53401 18.16 2.55602C18.286 2.57001 18.57 2.58201 18.79 2.58401C20.132 2.59001 21.41 2.58801 23.556 2.57201L25.98 2.55402L26.03 2.50401C26.058 2.47601 26.08 2.44802 26.08 2.44202C26.08 2.43402 26.044 2.39201 26 2.35001L25.918 2.27001L23.884 2.26801C22.766 2.26601 21.49 2.27201 21.05 2.28201Z" fill="black"/>
<path d="M3.75 2.46201C3.3 2.47001 2.656 2.48802 2.32 2.50002C1.984 2.51402 1.656 2.52201 1.59 2.52001C1.522 2.52001 1.344 2.53601 1.192 2.55801C1.034 2.58201 0.815996 2.60001 0.677996 2.60001C0.535996 2.60001 0.439996 2.60802 0.439996 2.62002C0.439996 2.63002 0.473996 2.65602 0.515996 2.67602C0.619996 2.72802 0.967996 2.76002 1.45 2.76402C2.914 2.77002 4.124 2.76801 6.24 2.75201L8.65 2.73402L8.706 2.67802L8.762 2.62002L8.69 2.54601C8.622 2.47601 8.606 2.47002 8.464 2.45602C8.264 2.43802 4.808 2.44201 3.75 2.46201Z" fill="black"/>
<path d="M72.96 3.14201C71.828 3.16201 70.752 3.19802 70.58 3.22202C70.508 3.23202 70.306 3.24601 70.13 3.25201C69.954 3.26001 69.798 3.27402 69.784 3.28602C69.752 3.31202 69.876 3.36602 70.04 3.39802C70.174 3.42402 71.15 3.45002 71.97 3.45002C73.282 3.44802 77.544 3.41402 77.78 3.40202C78.024 3.39002 78.03 3.38801 78.058 3.33601C78.088 3.28601 78.086 3.27802 78.04 3.23002C77.932 3.11402 78.052 3.12002 75.876 3.12402C74.772 3.12402 73.46 3.13401 72.96 3.14201Z" fill="black"/>
<path d="M55.65 3.32201C54.314 3.34601 53.444 3.37601 53.17 3.41001C53.038 3.42601 52.832 3.44001 52.71 3.44001C52.522 3.44001 52.406 3.46001 52.44 3.48401C52.468 3.50601 52.58 3.54801 52.65 3.56401C52.76 3.59201 53.818 3.62601 54.6 3.62801C55.628 3.63201 60.016 3.60001 60.372 3.58801L60.694 3.57601L60.73 3.51601L60.764 3.45601L60.688 3.39401C60.648 3.35801 60.598 3.32401 60.582 3.31601C60.538 3.29801 56.798 3.30201 55.65 3.32201Z" fill="black"/>
<path d="M38.36 3.50201C36.992 3.52601 36.1 3.55602 35.84 3.59002C35.714 3.60602 35.506 3.62002 35.378 3.62002C35.214 3.62002 35.138 3.62802 35.124 3.64602C35.108 3.66402 35.122 3.67802 35.186 3.70202C35.344 3.76402 35.492 3.77802 36.08 3.79002C36.404 3.79802 36.742 3.81002 36.83 3.81602C36.918 3.82402 37.228 3.82402 37.52 3.81602C37.812 3.81002 39.162 3.79802 40.52 3.79002C41.878 3.78202 43.076 3.77002 43.18 3.76202C43.358 3.75002 43.37 3.74801 43.398 3.69601C43.428 3.64601 43.426 3.63802 43.38 3.59002C43.272 3.47402 43.39 3.48002 41.256 3.48402C40.174 3.48402 38.872 3.49401 38.36 3.50201Z" fill="black"/>
<path d="M21.06 3.68202C19.882 3.70202 18.768 3.73802 18.6 3.76202C18.528 3.77202 18.336 3.78402 18.17 3.79002C17.762 3.80602 17.706 3.82202 17.846 3.87802C17.984 3.93402 18.09 3.94402 18.66 3.96202C18.984 3.97002 19.344 3.98602 19.46 3.99402C19.576 4.00402 19.914 4.00602 20.21 3.99802C20.508 3.99002 21.822 3.97802 23.13 3.97202C24.44 3.96402 25.63 3.95402 25.776 3.94802L26.042 3.93602L26.072 3.87602C26.104 3.81602 26.102 3.81402 26.028 3.75202C25.986 3.71802 25.938 3.68402 25.922 3.67602C25.88 3.65802 22.226 3.66202 21.06 3.68202Z" fill="black"/>
<path d="M3.75 3.86202C2.37 3.88602 1.462 3.91602 1.19 3.95002C1.058 3.96602 0.845995 3.98002 0.717995 3.98002C0.375995 3.98002 0.369995 4.03602 0.705995 4.11802C0.757995 4.13002 0.937995 4.14002 1.106 4.14002C1.272 4.14002 1.604 4.15002 1.84 4.16402C2.356 4.19402 2.1 4.19402 4.12 4.16402C5.038 4.15202 6.428 4.14002 7.208 4.13802C7.998 4.13802 8.646 4.12802 8.672 4.11802C8.7 4.10802 8.73 4.07802 8.744 4.05002C8.764 4.00602 8.76 3.99202 8.718 3.94802C8.612 3.83402 8.724 3.84002 6.626 3.84402C5.562 3.84402 4.268 3.85402 3.75 3.86202Z" fill="black"/>
<path d="M74.99 4.52202C72.104 4.53802 71.16 4.55802 70.66 4.61202C70.5 4.63002 70.242 4.64602 70.084 4.64602C69.858 4.65002 69.794 4.65602 69.78 4.68002C69.756 4.72002 69.768 4.73202 69.872 4.77802C69.954 4.81602 70.008 4.81802 70.518 4.82002C70.824 4.82002 71.144 4.83002 71.232 4.84002C71.33 4.85402 71.664 4.85802 72.11 4.85002C72.506 4.84402 73.984 4.83002 75.394 4.81802C76.804 4.80602 77.982 4.79002 78.014 4.78202C78.084 4.76402 78.102 4.67602 78.046 4.61602C78 4.56402 77.872 4.50002 77.826 4.50402C77.806 4.50602 76.53 4.51402 74.99 4.52202Z" fill="black"/>
<path d="M57.66 4.70202C54.72 4.71802 53.858 4.73802 53.27 4.79802C53.058 4.81802 52.832 4.83001 52.718 4.82401C52.52 4.81601 52.44 4.83401 52.44 4.89001C52.44 4.90601 52.474 4.93402 52.516 4.95402C52.578 4.98402 52.696 4.99202 53.28 5.00602C54.076 5.02802 54.736 5.02602 58.16 4.99802C60.012 4.98202 60.662 4.97202 60.7 4.95402C60.736 4.93602 60.75 4.91402 60.75 4.87202C60.75 4.80202 60.622 4.70202 60.52 4.69202C60.482 4.68802 59.194 4.69202 57.66 4.70202Z" fill="black"/>
<path d="M40.63 4.88202C36.984 4.90202 36.514 4.91202 35.83 4.99002C35.696 5.00402 35.504 5.01202 35.398 5.00602C35.2 4.99402 35.12 5.01402 35.12 5.07202C35.12 5.08802 35.16 5.11802 35.208 5.13802C35.37 5.20802 36.392 5.21602 40.858 5.17802C42.214 5.16602 43.344 5.15002 43.37 5.14002C43.432 5.11602 43.444 5.05002 43.396 4.99002C43.35 4.93002 43.218 4.85802 43.166 4.86402C43.146 4.86602 42.006 4.87402 40.63 4.88202Z" fill="black"/>
<path d="M23.31 5.06001C19.638 5.08201 19.194 5.09201 18.51 5.16801C18.376 5.18401 18.18 5.19201 18.068 5.18601C17.86 5.17401 17.78 5.19202 17.78 5.25002C17.78 5.26602 17.814 5.29402 17.856 5.31402C17.918 5.34402 18.036 5.35201 18.62 5.36601C19.416 5.38801 20.2 5.38602 23.56 5.35802C25.378 5.34202 26.002 5.33202 26.04 5.31402C26.076 5.29602 26.09 5.27402 26.09 5.23202C26.09 5.16202 25.962 5.06202 25.86 5.05202C25.822 5.04802 24.674 5.05201 23.31 5.06001Z" fill="black"/>
<path d="M5.72 5.24202C2.77 5.25802 1.858 5.27802 1.29 5.33802C1.066 5.36202 0.857995 5.37202 0.737995 5.36602C0.539995 5.35402 0.459995 5.37402 0.459995 5.43202C0.459995 5.44802 0.499995 5.47802 0.547995 5.49802C0.709995 5.56802 1.796 5.57602 6.26 5.54002C7.564 5.52802 8.654 5.51402 8.686 5.50802C8.768 5.49202 8.794 5.42802 8.746 5.36202C8.698 5.29802 8.564 5.22002 8.51 5.22402C8.488 5.22602 7.232 5.23402 5.72 5.24202Z" fill="black"/>
<path d="M73.22 5.92201C71.174 5.95001 70.516 5.98001 70.324 6.06001C70.3 6.07001 70.172 6.08002 70.04 6.08202C69.848 6.08402 69.8 6.09001 69.8 6.11201C69.8 6.13001 69.822 6.14001 69.86 6.14001C69.894 6.14001 69.946 6.15601 69.974 6.17401C70.02 6.20401 70.094 6.21001 70.568 6.21401C70.866 6.21601 71.196 6.22602 71.3 6.23602C71.412 6.24602 72.532 6.24201 74.04 6.22801C77.596 6.19401 77.982 6.18801 78.046 6.16201C78.164 6.11601 78.064 5.95001 77.896 5.91801C77.79 5.89801 74.926 5.90001 73.22 5.92201Z" fill="black"/>
<path d="M56.75 6.09402C56.52 6.09602 55.718 6.10802 54.97 6.12002C53.812 6.13802 53.566 6.14802 53.32 6.18202C53.16 6.20402 53.012 6.23002 52.99 6.24002C52.968 6.25002 52.842 6.26202 52.71 6.26402C52.566 6.26802 52.47 6.27802 52.47 6.29002C52.47 6.30002 52.5 6.31202 52.538 6.31602C52.576 6.32002 52.628 6.33802 52.656 6.35602C52.7 6.38402 52.784 6.39002 53.248 6.39402C53.546 6.39602 53.872 6.40602 53.97 6.41602C54.148 6.43202 59.668 6.39202 60.356 6.36802C60.638 6.35802 60.708 6.35002 60.744 6.32202C60.772 6.29802 60.78 6.27602 60.772 6.24802C60.752 6.19202 60.65 6.11802 60.564 6.09802C60.5 6.08402 58.008 6.08002 56.75 6.09402Z" fill="black"/>
<path d="M38.63 6.28201C36.508 6.31001 35.84 6.34201 35.67 6.42001C35.648 6.43001 35.522 6.44202 35.392 6.44402C35.222 6.44802 35.15 6.45801 35.144 6.47401C35.14 6.49201 35.158 6.50002 35.2 6.50002C35.234 6.50002 35.286 6.51601 35.314 6.53401C35.362 6.56601 35.432 6.57001 35.908 6.57401C36.206 6.57601 36.532 6.58602 36.63 6.59602C36.784 6.61002 40.314 6.58602 42.702 6.55402C43.39 6.54402 43.44 6.53802 43.44 6.45402C43.44 6.39602 43.34 6.29801 43.266 6.28401C43.176 6.26601 40.014 6.26401 38.63 6.28201Z" fill="black"/>
<path d="M21.32 6.46202C19.218 6.49002 18.496 6.52202 18.33 6.60002C18.308 6.61002 18.182 6.62202 18.05 6.62402C17.908 6.62802 17.81 6.63802 17.81 6.65002C17.81 6.66002 17.84 6.67202 17.878 6.67602C17.916 6.68002 17.968 6.69802 17.998 6.71602C18.042 6.74602 18.12 6.75002 18.58 6.75402C18.872 6.75602 19.192 6.76602 19.29 6.77602C19.558 6.80202 25.952 6.74002 26.054 6.70802C26.132 6.68602 26.132 6.62202 26.056 6.54802C26.02 6.51002 25.966 6.47202 25.94 6.46602C25.87 6.44402 22.832 6.44402 21.32 6.46202Z" fill="black"/>
<path d="M4.88 6.63402C4.644 6.63602 3.816 6.64802 3.04 6.66002C1.836 6.68002 1.588 6.68802 1.34 6.72202C1.18 6.74402 1.03199 6.77001 1.00999 6.78001C0.987995 6.79001 0.861995 6.80202 0.731995 6.80402C0.565995 6.81002 0.489995 6.81801 0.483995 6.83601C0.479995 6.85201 0.497995 6.86002 0.539995 6.86002C0.573995 6.86002 0.625995 6.87602 0.653995 6.89402C0.701995 6.92602 0.771995 6.93001 1.248 6.93401C1.54599 6.93601 1.866 6.94602 1.96 6.95602C2.11999 6.97202 3.186 6.96602 7.18 6.92402C8.294 6.91202 8.70199 6.90002 8.736 6.88202C8.84 6.82602 8.752 6.69202 8.584 6.64602C8.498 6.62402 6.542 6.61602 4.88 6.63402Z" fill="black"/>
<path d="M73.58 7.31402C72.476 7.32602 71.01 7.36201 70.82 7.38001C70.704 7.39201 70.488 7.41802 70.34 7.44002C70.192 7.46202 70.02 7.48202 69.96 7.48402L69.85 7.49001L69.918 7.53802C69.984 7.58602 69.994 7.58802 70.668 7.60802C71.044 7.62002 71.742 7.62802 72.22 7.62402C72.698 7.62002 74.192 7.61001 75.54 7.60401C77.786 7.59001 77.996 7.58602 78.052 7.55602C78.086 7.53602 78.12 7.50801 78.126 7.49201C78.142 7.45201 78.018 7.34601 77.926 7.32201C77.858 7.30401 74.914 7.29802 73.58 7.31402Z" fill="black"/>
<path d="M56.28 7.49401C55.13 7.50801 53.688 7.54201 53.5 7.56001C53.384 7.57201 53.196 7.59601 53.08 7.61201C52.964 7.63001 52.792 7.65201 52.696 7.65801L52.52 7.67001L52.592 7.71801C52.662 7.76601 52.672 7.76801 53.346 7.78801C53.722 7.79801 54.264 7.80801 54.55 7.80801C55.646 7.81001 60.3 7.77801 60.496 7.76801C60.674 7.75801 60.71 7.75001 60.756 7.71001C60.826 7.64801 60.804 7.60801 60.664 7.53601L60.558 7.48201L58.634 7.48602C57.576 7.48802 56.516 7.49001 56.28 7.49401Z" fill="black"/>
<path d="M38.97 7.67401C37.812 7.68801 36.368 7.72201 36.18 7.74001C36.064 7.75201 35.872 7.77401 35.75 7.79401C35.63 7.81201 35.454 7.83201 35.36 7.83801L35.19 7.85001L35.258 7.89802C35.324 7.94602 35.334 7.94602 36.008 7.96802C36.382 7.98002 37.1 7.98802 37.6 7.98402C38.1 7.98002 39.594 7.97201 40.92 7.96401C43.128 7.95001 43.336 7.94602 43.392 7.91602C43.426 7.89602 43.46 7.86801 43.466 7.85201C43.482 7.81001 43.358 7.70601 43.266 7.68201C43.198 7.66401 40.204 7.65801 38.97 7.67401Z" fill="black"/>
<path d="M21.67 7.85401C20.53 7.86601 19.05 7.90201 18.84 7.92001C18.714 7.93201 18.524 7.95601 18.42 7.97401C18.316 7.99001 18.146 8.01001 18.046 8.01801L17.86 8.03001L17.932 8.07801C18.002 8.12601 18.012 8.12801 18.676 8.14801C19.046 8.15801 19.602 8.16801 19.91 8.16801C21.05 8.17001 25.676 8.13801 25.856 8.12801C26.014 8.11801 26.05 8.10802 26.096 8.07001C26.166 8.00802 26.144 7.96801 26.006 7.89801L25.904 7.84602H24.016C22.978 7.84802 21.924 7.85001 21.67 7.85401Z" fill="black"/>
<path d="M4.38 8.03401C3.186 8.04801 1.726 8.08201 1.52 8.10001C1.394 8.11201 1.2 8.13601 1.09 8.15401C0.979996 8.17001 0.809996 8.19001 0.709996 8.19801L0.529996 8.21001L0.597996 8.25802C0.663996 8.30602 0.675996 8.30602 1.348 8.32802C1.722 8.34002 2.454 8.34802 2.97 8.34402C3.488 8.34002 4.982 8.33201 6.29 8.32401C8.468 8.31001 8.676 8.30602 8.732 8.27602C8.766 8.25602 8.8 8.22801 8.806 8.21201C8.822 8.17001 8.698 8.06602 8.606 8.04202C8.536 8.02602 5.574 8.01801 4.38 8.03401Z" fill="black"/>
<path d="M72.7 8.72002C70.886 8.77002 70.466 8.79602 70.19 8.88202C69.916 8.96602 70.046 8.99402 70.78 9.01202C71.116 9.02002 71.592 9.02602 71.84 9.02602C72.724 9.03002 77.198 8.99802 77.636 8.98802L78.082 8.97602L78.11 8.91802C78.144 8.85402 78.148 8.82002 78.122 8.82002C78.112 8.82002 78.076 8.79202 78.044 8.76002L77.984 8.70002L75.596 8.70402C74.284 8.70602 72.98 8.71202 72.7 8.72002Z" fill="black"/>
<path d="M55.67 8.89401C55.538 8.89601 55.138 8.90801 54.78 8.92001C53.234 8.97401 53.134 8.98001 52.822 9.07201C52.722 9.10001 52.716 9.10401 52.748 9.13601C52.778 9.16601 52.864 9.17201 53.416 9.18801C54.26 9.21201 54.504 9.21201 57.842 9.18801C60.924 9.16801 60.762 9.17401 60.8 9.07201C60.81 9.04001 60.8 9.01601 60.754 8.97401C60.72 8.94401 60.678 8.91001 60.658 8.89801C60.628 8.88201 56.434 8.87801 55.67 8.89401Z" fill="black"/>
<path d="M38.35 9.07401C38.048 9.08001 36.954 9.11601 36.35 9.14201C35.902 9.16001 35.692 9.18601 35.496 9.25201C35.268 9.32601 35.414 9.35602 36.11 9.37202C36.96 9.39202 37.322 9.39002 40.538 9.36802L43.404 9.34801L43.442 9.30202C43.482 9.25402 43.494 9.18002 43.462 9.18002C43.452 9.18002 43.416 9.15202 43.384 9.12002L43.324 9.06001L40.956 9.06402C39.654 9.06602 38.482 9.07001 38.35 9.07401Z" fill="black"/>
<path d="M21.04 9.25401C20.76 9.25801 19.756 9.29202 19.04 9.32001C18.574 9.33801 18.284 9.37801 18.122 9.44601C18.064 9.47201 18.06 9.47601 18.092 9.50201C18.13 9.53401 18.98 9.56602 19.86 9.56602C20.928 9.57002 25.586 9.53402 25.828 9.52202C26.078 9.51002 26.088 9.50802 26.126 9.45602L26.166 9.40202L26.1 9.34002C26.064 9.30602 26.018 9.27002 25.998 9.25802C25.968 9.24202 21.838 9.23801 21.04 9.25401Z" fill="black"/>
<path d="M3.43 9.44002C1.862 9.48002 1.244 9.51201 1.02 9.56401C0.871996 9.59801 0.739996 9.64201 0.739996 9.66001C0.739996 9.70201 0.895995 9.71802 1.45 9.73202C2.302 9.75202 2.706 9.75001 5.898 9.72801L8.744 9.70802L8.782 9.66202C8.822 9.61402 8.834 9.54002 8.802 9.54002C8.792 9.54002 8.756 9.51201 8.724 9.48001L8.664 9.42001L6.316 9.42401C5.026 9.42601 3.728 9.43202 3.43 9.44002Z" fill="black"/>
</svg>
